<?xml version="1.0" encoding="utf-8"?>
<!-- Generator: Adobe Illustrator 19.2.1, SVG Export Plug-In . SVG Version: 6.00 Build 0)  -->
<svg version="1.1" id="Layer_1" xmlns="http://www.w3.org/2000/svg" xmlns:xlink="http://www.w3.org/1999/xlink" x="0px" y="0px"
	 viewBox="0 0 50 50" style="enable-background:new 0 0 50 50;" xml:space="preserve">
<style type="text/css">
	.st0{fill:url(#SVGID_1_);}
</style>
<g>
	<path d="M597.9,411.1c-0.3-0.2-0.6-0.4-0.9-0.5c-0.3-0.1-0.7-0.2-1.1-0.2c-0.4,0-0.8,0.1-1.2,0.2h-4.9c-1.3,0-2.3,1.4-2.3,3v9.3
		c0,1.7,1,3,2.3,3h2.7l0.4,3.9l0.8-0.3l2.2,7c0.7,2,2.9,3.2,4.9,2.5c2.1-0.7,3.2-2.9,2.5-4.9l-0.2-0.6l0,0l-2.1-6.4l3.6-1.2
		c0.1,0,0.2,0,0.4,0.1c11.2,2.2,19.7,7.8,19.7,7.8v-34.5C619.1,406.9,603.9,410.1,597.9,411.1z"/>
	<rect x="626.1" y="398.9" width="2.3" height="36.6"/>
	<path d="M585.9,413.5c0-0.6,0.2-1.2,0.4-1.7h-2.1c-2,0-3.7,1.3-4.3,3.2h2.6c0.4,0,0.8,0.3,0.8,0.8c0,0,0,0,0,0.1l0,0
		c0,0.4-0.3,0.8-0.8,0.8h-2.9v0.9h2.9c0.4,0,0.8,0.3,0.8,0.8c0,0,0,0,0,0.1l0,0c0,0.4-0.3,0.8-0.8,0.8h-2.9v0.9h2.9
		c0.4,0,0.8,0.3,0.8,0.8c0,0,0,0,0,0.1l0,0c0,0.4-0.3,0.8-0.8,0.8h-2.7c0.6,1.8,2.4,3.2,4.4,3.2h2.3c-0.4-0.5-0.6-1.3-0.6-2
		L585.9,413.5L585.9,413.5z"/>
</g>
<g>
	
		<linearGradient id="SVGID_1_" gradientUnits="userSpaceOnUse" x1="6.0313" y1="27.0123" x2="43.967" y2="27.0123" gradientTransform="matrix(1 0 0 -1 0 52)">
		<stop  offset="0" style="stop-color:#999999"/>
		<stop  offset="0.1485" style="stop-color:#E0FEFF"/>
		<stop  offset="0.4026" style="stop-color:#CFBFD9"/>
		<stop  offset="0.6613" style="stop-color:#8896EA"/>
		<stop  offset="0.9174" style="stop-color:#474747"/>
	</linearGradient>
	<path class="st0" d="M41.7,2.8c1.1,0.8,1.9,1.5,2.2,2.4C43.4,6,42.8,6.9,42,7.9c-0.8,1-1.7,1.8-2.6,2.4h-0.6L31.9,21
		c1.6,1.2,2.7,2.5,3.2,3.7c0.7,1.7,0.6,3.3-0.3,4.6c-0.9,1.3-1.7,2.2-2.4,2.5c-1.3,0.6-2,1.1-2.1,1.2c-0.6,0.8-0.7,1.8-0.6,2.9
		c0.3,2.3,0,4.8-1.1,7.5s-3.3,4.4-6.7,4.9c-2.1,0.4-5.1-0.8-9-3.4c-3.9-2.7-6.1-5.1-6.5-7.2c-0.7-3.4,0-6.1,2.2-8.1s4.4-3.2,6.7-3.7
		c1.1-0.2,1.9-0.7,2.5-1.6c0.1-0.2,0.3-1,0.4-2.4c0.1-0.8,0.6-1.9,1.5-3.2c0.9-1.3,2.3-1.9,4.2-1.9c1.3,0,2.8,0.6,4.6,1.7L36,8.2
		l-0.2-0.6c0.3-1.1,0.7-2.2,1.3-3.3s1.2-2,1.8-2.7C39.6,1.6,40.6,2,41.7,2.8L41.7,2.8z M26.8,24.3c-1.9-1.3-3.5-1-4.7,0.9
		c-1.3,1.9-1,3.5,0.9,4.8c1.9,1.3,3.5,1,4.8-0.9C29,27.1,28.6,25.5,26.8,24.3L26.8,24.3z M13.8,35.8L13,37.1l6.9,4.7l0.9-1.2
		L13.8,35.8z M37.1,6.6L37.1,6.6c0.1,0.1,0.3,0,0.4-0.2c0.1-0.2,0.1-0.3-0.1-0.4c-0.2-0.1-0.3-0.1-0.5,0.1c-0.1,0.2-0.1,0.3,0,0.4
		l-0.8,2.1L14.9,37.9L15,38L36.3,8.6L37.1,6.6z M39.1,3.6L39.1,3.6L36.9,9L16,38.6l0.2,0.1L37,9.1l2.2-5.4c0.1,0.1,0.3,0,0.4-0.2
		c0.1-0.2,0.1-0.3-0.1-0.4C39.3,3,39.2,3,39,3.2C38.9,3.4,39,3.5,39.1,3.6L39.1,3.6z M41.7,5.5c0.1,0.1,0.3,0,0.4-0.2
		C42.2,5.1,42.2,5,42,4.9S41.7,4.8,41.5,5c-0.1,0.2-0.1,0.3,0,0.4l-4,4.2L17.1,39.4l0.1,0.1L37.7,9.6L41.7,5.5z M39.9,8.5
		c0.2,0.1,0.3,0.1,0.4-0.1c0.1-0.2,0.1-0.3-0.1-0.4c-0.2-0.1-0.3-0.1-0.4,0.1c-0.1,0.1-0.1,0.3,0,0.3L38.3,10l-20,30.1l0.1,0.1
		l20-30.1L39.9,8.5z"/>
</g>
</svg>
