<?xml version="1.0" encoding="utf-8"?>
<!-- Generator: Adobe Illustrator 19.2.1, SVG Export Plug-In . SVG Version: 6.00 Build 0)  -->
<svg version="1.1" id="Layer_1" xmlns="http://www.w3.org/2000/svg" xmlns:xlink="http://www.w3.org/1999/xlink" x="0px" y="0px"
	 viewBox="0 0 100 100" style="enable-background:new 0 0 100 100;" xml:space="preserve">
<style type="text/css">
	.st0{fill:#E5D5AC;}
</style>
<polygon class="st0" points="77.7,9 90.5,19.5 32,93.2 19.7,82.3 "/>
<path d="M77.2,5.3c0,0-4.6-2.6-10.1,5.1l-1.6,1.9c-10.1,12.5-16.4,7.9-33,15.2C24.7,31,19.6,34.9,16,39.4c-0.3,0.4-0.5,0.7-0.7,1.1
	l0,0c0,0-0.3,0.4-0.8,1.2c-2.2,3.4-3.7,6.7-4.8,9.8c-0.3,1.2-0.6,2.6-0.8,4c-0.4,2.1-0.7,4.2-0.8,6.5c0.2,12.6,8.4,20.9,11.7,23.7
	l1.3,1.1l0,0l0,0L31.4,95L93,17.8L77.2,5.3z M22.9,83l1.8-2.3l7.2,5.7l0.8-1.1l-7.2-5.7l1.4-1.7l7.2,5.7l0.8-1.1l-7.2-5.7l1.4-1.7
	l7.2,5.7l0.8-1.1L30,74.1l2.5-3.1l7.2,5.7l0.8-1.1l-7.2-5.7l1.3-1.7l7.2,5.7l0.8-1.1l-7.2-5.7l2.3-2.9L45,70l0.8-1.1l-7.2-5.7
	l1.4-1.7l7.2,5.7l0.8-1.1l-7.2-5.7l1.4-1.7l7.2,5.7l0.8-1.1L43,57.6l2.4-3.1l7.2,5.7l0.8-1.1l-7.2-5.7l1.4-1.7l7.2,5.7l0.8-1.1
	l-7.2-5.7l2.3-2.8l7.2,5.7l0.8-1.1l-7-5.4l1.4-1.7l7.2,5.7l0.8-1.1l-7.2-5.7l1.4-1.7l7.2,5.7l0.8-1.1l-7.2-5.7l2.5-3.1l7.2,5.7
	l0.8-1.1l-7.2-5.7l1.4-1.7l7.2,5.7l0.8-1l-7.2-5.7l2.3-2.9l7.2,5.7l0.8-1.1l-7.2-5.7l1.4-1.7l7.2,5.7l0.8-1.1L67,27.8l1.4-1.7
	l7.2,5.7l0.8-1.1L69.2,25l2.3-2.9l7.2,5.7l0.8-1.1L72.3,21l1.4-1.7l7.2,5.7l0.8-1.1l-7.2-5.7l2.6-3.2l7.2,5.7l0.8-1.1l-7.2-5.7
	l1.3-1.6l10.2,8.1L33.1,91.1L22.9,83z"/>
</svg>
