<?xml version="1.0" encoding="utf-8"?>
<!-- Generator: Adobe Illustrator 19.2.1, SVG Export Plug-In . SVG Version: 6.00 Build 0)  -->
<svg version="1.1" id="Layer_1" xmlns="http://www.w3.org/2000/svg" xmlns:xlink="http://www.w3.org/1999/xlink" x="0px" y="0px"
	 viewBox="0 0 147.7 103.3" style="enable-background:new 0 0 147.7 103.3;" xml:space="preserve">
<style type="text/css">
	.st0{fill:url(#SVGID_1_);}
	.st1{fill:url(#SVGID_2_);}
</style>
<g>
	<linearGradient id="SVGID_1_" gradientUnits="userSpaceOnUse" x1="106.9276" y1="18.344" x2="129.9276" y2="49.344">
		<stop  offset="0" style="stop-color:#A6A6A6"/>
		<stop  offset="6.029922e-02" style="stop-color:#858585"/>
		<stop  offset="0.1385" style="stop-color:#626262"/>
		<stop  offset="0.2244" style="stop-color:#434343"/>
		<stop  offset="0.3181" style="stop-color:#2A2A2A"/>
		<stop  offset="0.423" style="stop-color:#171717"/>
		<stop  offset="0.5451" style="stop-color:#0A0A0A"/>
		<stop  offset="0.7003" style="stop-color:#020202"/>
		<stop  offset="1" style="stop-color:#000000"/>
	</linearGradient>
	<path class="st0" d="M104.8,19.9c10.1-6.6,23.6-3.8,30.2,6.2c6.6,10.1,3.8,23.6-6.2,30.3c-4.1,2.7-8.8,3.8-13.4,3.5L96.3,30.8
		C97.8,26.5,100.7,22.6,104.8,19.9z"/>
	<linearGradient id="SVGID_2_" gradientUnits="userSpaceOnUse" x1="62.2742" y1="50.6508" x2="87.2742" y2="86.6508">
		<stop  offset="0" style="stop-color:#FFFFFF"/>
		<stop  offset="1" style="stop-color:#000000"/>
	</linearGradient>
	<polygon class="st1" points="94.9,33.8 112.6,60.8 47.3,93 38.7,80.2 	"/>
</g>
<path d="M12.4,87.8c4-2.9,8.2-4.5,13.1-2.9c2.7,0.9,5.6,3.1,8.2,3.6c1.5,0.3,2.9-0.1,4.2-0.9l1.8-1.1l2.3,3.7l-1.8,1.1
	c-2.4,1.5-5,2.1-7.8,1.4C29.4,92,27,90,24.2,89c-3.5-1.2-6.4,0.3-9.2,2.3l-1.8,1.3l-2.6-3.5L12.4,87.8L12.4,87.8z"/>
</svg>
