<svg id="Layer_1" data-name="Layer 1" xmlns="http://www.w3.org/2000/svg" viewBox="0 0 345.476 252.861">
  <defs>
    <style>
      .cls-1 {
        fill: #ffc293;
      }

      .cls-2 {
        fill: #231f20;
      }

      .cls-3 {
        fill: #010101;
      }
    </style>
  </defs>
  <title>Norma-Memory-orange</title>
  <path class="cls-1" d="M231.367,151.8c-3.615-.592-7.929-12.232.462-14.47,9.6-2.561,18.822,5.438,5.6,20.026s-25.176-.993-28.354-7.441-11.6-32.2,44.673-83.682S306.85,3.5,306.85,3.5s-1.172,39.031-19.186,59.305-40.2,36.907-43.635,38.6,16.1-4.223,43.06-24.637,44.618-57.515,44.618-57.515,4.153,40.2-35.254,71.974a225.116,225.116,0,0,1-46.244,28.494s17.791,1.926,47.984-16.756S341.955,59.3,341.955,59.3s-3.426,33.5-35.937,58.069c-16.779,12.682-42.631,21.125-42.631,21.125s1.169,3.588,37.817-11.631S349.153,99.9,349.153,99.9s-2.068,20.763-42.988,41.8c-31.966,16.433-46.445,13.683-46.445,13.683s15.777,5.04,29.5,2.07,48.261-14.772,48.261-14.772S327.095,162.05,289.9,172.314a73.189,73.189,0,0,1-38.466-.026s7.493,5.1,31.549,11.032c10.269,2.533,37.353-5.122,37.353-5.122s-9.983,14.416-51.7,17.419c-18.965,1.365-27.2-6.056-27.2-6.056a47.185,47.185,0,0,0,22.8,18.331c10.042,3.873,25.818,4.223,25.818,4.223s-22.267,12.274-37.934,6.832c-19.773-6.868-32.238-23.985-25.331-33.087,3.255-4.29,10.559-15.175,15.545-21.431s12.662-16.686,3.587-28.354c-6.787-8.726-17.705-6.164-21.312-2.786-2.671,2.5-7.3,12.146-1.054,18.085C227.949,155.543,231.367,151.8,231.367,151.8Z" transform="translate(-3.677 -3.5)"/>
  <path class="cls-1" d="M127.288,184.143c3.5-1.064,6.243-13.173-2.37-14.282-9.859-1.27-17.938,7.877-2.9,20.591s24.824-4.311,27.122-11.122,7.246-33.453-55.339-77.045S32.871,47.119,32.871,47.119s6.319,38.534,26.855,56.25,44.722,31.272,48.353,32.5-16.512-2.059-45.938-18.731S10.313,66.021,10.313,66.021s1.2,40.4,44.455,66.684a225.116,225.116,0,0,0,49.6,22.134s-17.381,4.26-49.778-10.269-49.147-37.5-49.147-37.5,7.822,32.75,43.3,52.811C67.05,170.235,93.79,175.188,93.79,175.188s-.685,3.711-39.022-6.532S3.677,148.268,3.677,148.268s4.794,20.308,48.134,35.753c33.858,12.065,47.846,7.425,47.846,7.425s-14.973,7.081-28.972,5.951-49.79-8.265-49.79-8.265,12.86,17.822,51.081,23.082A73.189,73.189,0,0,0,110.1,207.1s-6.754,6.043-29.814,15.1c-9.844,3.868-37.7-.141-37.7-.141s11.8,12.971,53.552,10.434c18.979-1.153,26.158-9.6,26.158-9.6a47.185,47.185,0,0,1-20.182,21.184c-9.442,5.166-25.034,7.6-25.034,7.6s23.694,9.224,38.5,1.76c18.692-9.421,28.786-28.035,20.737-36.144-3.794-3.822-12.472-13.646-18.241-19.189s-14.756-14.867-7.3-27.631c5.574-9.546,16.735-8.449,20.757-5.578,2.978,2.126,8.846,11.074,3.434,17.787C131.17,187.4,127.288,184.143,127.288,184.143Z" transform="translate(-3.677 -3.5)"/>
  <g>
    <g>
      <path class="cls-2" d="M80.167,75.9s-.312.486-.406.481c-.183.169-.428.449-.434.408-.234.364-.261.222-.427.449a1.945,1.945,0,0,0-.381.418,4.955,4.955,0,0,0-.48.508c-.438.434-.288.149-.731.609.17.251.249.266.425.559.091.3.309.523.29.833a1.81,1.81,0,0,1,.088.6c.039.158.029.278.061.462a4.453,4.453,0,0,0-.022.541c-.036.184-.076.394-.112.51a2.233,2.233,0,0,1-.016.652c-.056.221-.113.305-.19.631a4.456,4.456,0,0,0-.258.565c-.02.1-.155.38-.2.547-.1.185-.2.206-.307.391a1.345,1.345,0,0,1-.244.348,3.01,3.01,0,0,1-1.059,1.038,4.782,4.782,0,0,1-1.343.314,2.682,2.682,0,0,1-.7-.231,3.533,3.533,0,0,1-.744-.32,2.325,2.325,0,0,1-.62-.679,8.973,8.973,0,0,1-.719-1.434c.037-.688-.063-1.376-.017-1.612a4.341,4.341,0,0,1,.531-1.549c.083-.148.191-.359.264-.522a2.153,2.153,0,0,1,.719-.762c.188-.127.454-.375.722-.283.154.125-.108.279-.165.431-.083.216-.353.492-.394.77a4.753,4.753,0,0,1-.174.553c-.089.175,0,0-.02.242a.91.91,0,0,1-.126.657c-.01.121-.012.556-.006.667-.009.325.048.173.072.545a3.614,3.614,0,0,0,.143.887c.022.1.068-.069.159.166a2.381,2.381,0,0,0,.839,1.239,1.478,1.478,0,0,0,1.352.273A3.059,3.059,0,0,0,76.6,84.786a6.1,6.1,0,0,0,.555-.971,3.772,3.772,0,0,1,.243-.553,4.894,4.894,0,0,1,.159-.542,1.522,1.522,0,0,0,.065-.478c0-.094-.054-.215-.008-.315,0,0,.034-.321.039-.484s-.1-.251-.114-.472c.01-.121-.128-.325-.034-.457-.288-.491-.012-.861-.675-1.1-.231.133-.34.275-.612.414a9.015,9.015,0,0,1-1.191.3.811.811,0,0,1-.774-.3c-.009-.52.106-.553.366-.912a1.618,1.618,0,0,1,.946-.6c.152-.012.537.049.636.027.236-.023.443.248.652.153.225-.107.012.151.439-.229s.6-.635.913-.915c.213-.191.663-.61.965-.906a7.346,7.346,0,0,0,1.077-1.348c-.218-.424-.066-.435.083-.925.584-.693,1.266-.057,1.8.727a3.824,3.824,0,0,1,.351.586,9.3,9.3,0,0,0,.435,1.148c.242.8.607,1.808.775,2.563a2.715,2.715,0,0,0,.285.859c.21.04.289-.012.408-.208a1.982,1.982,0,0,0,.373-.733.405.405,0,0,0,.177-.212.33.33,0,0,1-.038-.158,1.049,1.049,0,0,0,.234-.364,1.569,1.569,0,0,1,.052-.195,3.276,3.276,0,0,0,.371-.87,6.9,6.9,0,0,0,.364-1.185c.065-.614.165-1.141.281-1.814a.378.378,0,0,1-.029-.346c-.053-.079-.006-.111.072-.163-.124-.488.015-.857-.155-1.107a6.13,6.13,0,0,0-.712-.478c-.227-.03-.615-.064-.555-.379.009-.19.244-.348.517-.35.137,0-.037-.021.478.064a3.7,3.7,0,0,1,.855.451,3.877,3.877,0,0,1,.988.886,1.807,1.807,0,0,0,.93.765,1.185,1.185,0,0,0,.83-.058,5.045,5.045,0,0,0,.454-.309c-.016-.126.068,0,.322-.538A7.848,7.848,0,0,1,90.546,72c.109-.143.07-.437.122-.563a2.878,2.878,0,0,1,.2-.548,1.954,1.954,0,0,0,.279-.738c.106.021.267-.752.267-.752.016-.08.221.056.208.476,0,0-.093.2-.217.49-.114.237-.206.573-.33.864-.067.2-.1.567-.178.784a7.784,7.784,0,0,0-.357.723,3.911,3.911,0,0,1-.326.7,1.9,1.9,0,0,1-.412.371,1.581,1.581,0,0,1-1.138.312,1.531,1.531,0,0,1-1.044-.528c-.338-.3-.948-1.1-1.021-1.069.35.517.239.318.238.891a3.819,3.819,0,0,0-.031.8,1.9,1.9,0,0,0-.173.758,4.214,4.214,0,0,1-.285,1.268,7.535,7.535,0,0,1-.477,1.559,6.075,6.075,0,0,1-.423,1.064,6.566,6.566,0,0,0-.355,1c-.424.286-.432.681-.724.788-.22.149-.262.086-.467.02-.063.042-.083.148-.126.085-.079.054-.153-.057-.311-.155a1.547,1.547,0,0,1-1.361-.726,2.9,2.9,0,0,1-.384-.7.36.36,0,0,1-.029-.346,6.248,6.248,0,0,1-.843-1.717l-.109-.566-.06-.257c-.054-.215-.336-.665-.337-.733Zm-3.756,3a1.045,1.045,0,0,0-1.193-.039c-.816.552-.823.878-.43.818A2.89,2.89,0,0,0,76.412,78.9Z" transform="translate(-3.677 -3.5)"/>
      <path class="cls-2" d="M90.468,72.562a1.954,1.954,0,0,1-.35.53l-.111-.155.079-.242.192-.461a2.285,2.285,0,0,0,.368-.8.713.713,0,0,1,.088-.225l.143-.433.46-.944a5.489,5.489,0,0,0,.156-.637,4.643,4.643,0,0,1,.149-1.179c0-.484,0-.763.181-.935a1.176,1.176,0,0,1,1.255-.135,3.17,3.17,0,0,1,.213,2.107,7.42,7.42,0,0,1-.006.747,2.733,2.733,0,0,0,.065.377,2.474,2.474,0,0,1-.03.477l.01.584.038.634c-.021.645-.244.6.1,1.189a2.1,2.1,0,0,0,.482.531,1.205,1.205,0,0,0,.775-.36c.23-.133.5-.615.682-.788a4.418,4.418,0,0,0,.543-.838,1.415,1.415,0,0,0,.475-.691c-.02-.338.436-.229.425-.551.334-.521.02-.23.3-.5l.23-.4a2.122,2.122,0,0,0,.17-.274l.337-.589c.084-.158.242-.49.335-.631l.211-.581a1.215,1.215,0,0,1,.114-.219c.113-.218.112-.372.206-.512l.143-.433.49-1.005.014-.052c.023-.035.054.057.054.057l.069.572s-.138.254-.272.551c-.14.212-.111.413-.272.7a1.922,1.922,0,0,1-.138.365c-.145.28-.237.574-.364.845l-.407.847c-.121.244-.341.546-.431.73-.187.545-.32.316-.743,1.173l-.146.237a9.618,9.618,0,0,1-.672.957,6.518,6.518,0,0,1-.865,1.113,6.2,6.2,0,0,1-.942.829c-.184-.09-.385.091-.566.042a2.216,2.216,0,0,1-1.638-1.283,2.193,2.193,0,0,1-.312-.8,12.688,12.688,0,0,1-.236-1.81l-.144.281c.009.016-.061.122-.091.183l-.155.374a2.665,2.665,0,0,1-.2.4,2.249,2.249,0,0,1-.171.383c-.1.166-.176.451-.18.409S90.468,72.562,90.468,72.562Zm1.406-7.591c-.241.074-.461-.04-.793-.351.03-.476.36-1.192,1.03-1.054a2.293,2.293,0,0,1,.42.5A2.215,2.215,0,0,1,91.874,64.972Z" transform="translate(-3.677 -3.5)"/>
      <path class="cls-2" d="M111.277,61.912a1.365,1.365,0,0,1,.111-.288l.705-1.218a.884.884,0,0,1,.059-.178,2.9,2.9,0,0,1,.272-.516,2.325,2.325,0,0,0,.348-.7c.1.034.357-.727.357-.727-.009-.017.034-.017.068.009l.008-.026.026.094a.674.674,0,0,1,.05.229l.042.127-.765,1.438c-.093.2-.154.5-.238.669-.162.313-.323.414-.442.685l-.212.381-.009.025c-.077.187.017.119-.094.407a4.267,4.267,0,0,0-.34.888,11.55,11.55,0,0,1-.688,1.591,4.436,4.436,0,0,1-.425.8c-.068.119-.213.55-.366.8a2.88,2.88,0,0,1-.9.912c-.432.364-1.144.126-1.658-.908a2,2,0,0,1-.185-.627c-.025-.093-.085-.127-.11-.22a1.614,1.614,0,0,1,0-.212,1.692,1.692,0,0,1-.041-.381,1.07,1.07,0,0,1,.042-.212c0-.084-.042-.127-.042-.211.01-.745.122-1.583.174-2.413.009-.068.051-.111.059-.178s-.042-.17-.033-.237l.009-.533c-.008-.229.06-.432.035-.652l-.007-.356c-.017-.077,0-.212-.161-.238l-.153.076a3.957,3.957,0,0,0-1.4,1.733c-.043.127-.288.144-.357.6a1.592,1.592,0,0,1-.348.491,4.206,4.206,0,0,1-.441.812c-.051.067-.1.474-.153.372-.187.347-.069.5-.272.6a16.474,16.474,0,0,0-.723,1.819c.016.034-.214.847-.332,1.329-.129.508-.163,1.2-.638,1.439-.338.168-.685.193-.829-.095-.524-1.051-.125-1.736-.207-2.964a5.007,5.007,0,0,0,.019-.771c-.084-.931.322-.965.155-2.15-.05-.355-.346-.695-.5-.576a3.23,3.23,0,0,0-.84,1.285,2.126,2.126,0,0,1-.281.88l-.051.111-.017.135a.232.232,0,0,1-.034.06,1.763,1.763,0,0,1-.255.592l-.526.981a2.3,2.3,0,0,1-.136.406,5.885,5.885,0,0,1-.339.507l-.417.778-.051.025c.009.017-.026.034-.026.034a.735.735,0,0,1-.144.051l-.289.144a.776.776,0,0,0,.127-.212c.009-.11.043-.17.349-.66l.408-.668.118-.186a3.946,3.946,0,0,1,.2-.542c.1-.22.069-.246.171-.381a2.373,2.373,0,0,0,.348-.7c.025.008.067-.034.11-.119a6.1,6.1,0,0,1,.332-.905,8.217,8.217,0,0,1,.739-1.573c.076-.059.093-.279.449-.457a1.693,1.693,0,0,1,.517-.067c.39-.024.939.7,1.142,1.1a6.46,6.46,0,0,1,.513,2.219c.373-.27.459-.736.654-1.066.467-.846.8-1.582,1.283-2.521.22-.11.2-.313.255-.466.559-.279.2-.965,1.348-1.538a3.27,3.27,0,0,1,.551-.423c.373-.186.694.035.906.459a4.276,4.276,0,0,1,.253.635c.026.051.118.153.178.272a3.761,3.761,0,0,1,.2,1.38c.009.144.1.415.109.559.017.373.058.584.091.864a10.926,10.926,0,0,0-.222,1.592,4.542,4.542,0,0,0,.082,1.65c.059.161.22.1.287.068.289-.143.374-.313.569-.642.094-.153.229-.474.323-.669s.45-.795.543-1.032a4.221,4.221,0,0,0,.459-1.16c.017-.093.272-.6.289-.693.051-.237.145-.39.171-.55a.061.061,0,0,1,0-.043A.565.565,0,0,1,111.277,61.912Z" transform="translate(-3.677 -3.5)"/>
      <path class="cls-2" d="M117.672,55.678c-.034-.088-.033-.19-.069-.278a.64.64,0,0,0-.807-.292c-.475.188-.562.791-1.072,1.1a9.127,9.127,0,0,1-.579,1.163,4.2,4.2,0,0,0-.807,1.356,11.544,11.544,0,0,1-.315,1.365,2.514,2.514,0,0,0-.155,1.668,1.151,1.151,0,0,0,.374.483c.324-.311.934-.673.939-1.021.186.007.169-.189.124-.253a20.8,20.8,0,0,0,2.171-2.952c.177-.069.163-.309.34-.378.141-.056.117-.27.17-.291.035-.013.091.025.091.025-.083-.211.732-1.082.666-1.1a8.829,8.829,0,0,0,1.347-1.792c.2-.364.237-.948.624-1.1.492-.194.786.138.967.595a10,10,0,0,1,.341,1.636,8.6,8.6,0,0,0,.451,1.347c.263.669.576,1.36.847,2.045a25.068,25.068,0,0,1,1.02,3.564,5.657,5.657,0,0,0,.535-.191c.457-.181.926-.386,1.4-.574.88-.347,2.291-.843,2.624,0,.16.4.154.855-.268,1.021a.26.26,0,0,1-.134-.131c-.069-.176.118-.372.049-.548-.243-.616-1.834-.008-2.591.29a3.679,3.679,0,0,0-1.669,1.594,10.35,10.35,0,0,1-.449,3.656,9.121,9.121,0,0,1-1.372,1.884c-.207.61-.282.11-.887,1.1a3.156,3.156,0,0,1-1.568,1.128c-.881.348-1.487,0-1.632-.373a2.311,2.311,0,0,1,.109-1.629c.2-1.3.6-1.357.52-1.568a23.067,23.067,0,0,1,3.559-4.333,1.21,1.21,0,0,1-.057-.71,13.334,13.334,0,0,0-1.13-4.151l-.569-1.443a19.143,19.143,0,0,1-.718-2.076.136.136,0,0,0-.133-.029c-.088.035-.152.182-.177.274-.18.214-.626.267-.459.69-.335.132-.364.571-.505.626-.346.36-.538.7-.859,1.071a5.341,5.341,0,0,1-.718,1.118c-.107.143-.3.22-.459.385-.071.232-.051.488-.3.585-.282.111-.033.278-.174.333-.409.508-.442.581-.583.637a.294.294,0,0,1-.029.235s-.049-.022-.067-.014c-.088.034-.067.189-.1.305-.1.118-.237.174-.388.356a1.65,1.65,0,0,1-.78.653c-.317.125-.6-.028-1.185-.529a2.519,2.519,0,0,1-.829-.812,4.666,4.666,0,0,1,.072-2.449,6,6,0,0,0,.736-1.328c.159-.164.161-.368.32-.532a6.926,6.926,0,0,1,2.21-2.338.287.287,0,0,1,.117-.066,2.718,2.718,0,0,1,.762-.077c.5-.033.573-.145,1.054-.008.315.181.519.079.645.4a1,1,0,0,1-.057.836C118.044,55.9,117.8,55.994,117.672,55.678Zm3.562,10.208c-.543.479-.354.445-.577.961-.222.209-.609.261-.647.987-.052.021-.137.013-.172.028-.088.034-.3.789-.423.837a3.1,3.1,0,0,0-.523,2.383c.139.352.589.256.888.137a2.779,2.779,0,0,0,1.473-1.781c.1-.264.439.029.224-.516.669-.263.652-1.233.721-1.627.061-.308.232-.132.139-.318-.09-.229.23-.4.091-.749a2.671,2.671,0,0,0,.024-1.331c-.028-.071-.063-.159-.172-.075A11.706,11.706,0,0,0,121.234,65.886Z" transform="translate(-3.677 -3.5)"/>
      <path class="cls-2" d="M191.515,48.406c.192-.108.366-.235.54-.343.058-.055.079-.112.136-.148a.019.019,0,0,0,.02-.018c.136-.148.1-.244.315-.445a2.913,2.913,0,0,0,.369-.311c0-.038.28-.541.281-.56a4.317,4.317,0,0,1,.831-.619c.124-.375.617-.361.656-.417.077-.073.082-.225.158-.222a2.592,2.592,0,0,1,.782-.242,1.163,1.163,0,0,1,.767-.356c.359.01,1.768.372,1.739,1.394-.011.4-.342.69-.5.931-1.306.681-1.346.775-2.171,1.13a3.536,3.536,0,0,1-1.513.657,4.072,4.072,0,0,0-.542,1.063,3.648,3.648,0,0,0-.295,1.052,1.715,1.715,0,0,0,.679.738,1.207,1.207,0,0,0,.6.112c.209.006.416.031.6.037a3.256,3.256,0,0,0,1.638-.369,4.749,4.749,0,0,1,.782-.224c.077-.035.4-.234.5-.269.114-.035.247-.031.342-.066a7.4,7.4,0,0,0,1.094-.536.723.723,0,0,0,.4-.215c.058-.037.156-.166.214-.2.252-.2.449-.479.581-.475.462-.27.829-.507,1.156-.723l.156-.147a5.34,5.34,0,0,1,.483-.346c.421-.158.484-.364.637-.455.054.1.639-.474.639-.474.02-.018.056.021.055.078.018,0,.038-.018.057-.037l-.108.452-1.446.961a3.138,3.138,0,0,1-.447.422c-.272.219-.461.214-.712.4l-.522.4c-.445.328-.581.456-1.237.91V50.9l-.058.017a1.225,1.225,0,0,0-.806.412c-.422.215-1.027.2-1.359.529-.247.069-.456.062-.684.113a4.5,4.5,0,0,1-2.089.261l-.073-.1a.628.628,0,0,1-.19.014,2.455,2.455,0,0,1-1.873-2.628,7.179,7.179,0,0,1-.007-1.059c-.038.018-.058.036-.077.035a1.813,1.813,0,0,1-.423.215l-.77.489a.545.545,0,0,1-.321-.01l-.131-.06c.252-.2.58-.438.638-.474C191.207,48.548,191.342,48.5,191.515,48.406Zm3.129-.251c.246.007.3-.085.612-.228.423-.233.667-.17.862-.391.078-.073.539-.307.617-.38a1.321,1.321,0,0,0,.809-1.149.481.481,0,0,0-.5-.487c-.737-.022-1.41.962-1.705,1.408-.629.833-.891.712-.9,1.147C194.436,48.168,194.568,48.154,194.644,48.155Z" transform="translate(-3.677 -3.5)"/>
      <path class="cls-2" d="M200.579,49.1c.8-.392,1.307-.662,1.852-.965l.127-.119a2.834,2.834,0,0,1,.506-.29l.119-.045.343-.191c.084-.068.129-.139.208-.168,0,.018.017.021.038,0l.142-.08.428-.278.084-.067h.018a6.761,6.761,0,0,1,1.034-.595c.485-.634.289-.75.891-1.238.949.025,1.221.872,1.031,1.954-.128.672-.656,1.168-.646,1.8.456.182.871-.326,1.3-.624a.884.884,0,0,0,.366-.227,14.808,14.808,0,0,1,1.615-.876.676.676,0,0,0,.367-.228,3.226,3.226,0,0,1,.713-.267.931.931,0,0,1,.237-.261,2.593,2.593,0,0,0,.353-.1c.081-.049.154-.194.237-.261.213-.034.476-.007.692-.06a1.35,1.35,0,0,1,.64-.122,1.334,1.334,0,0,1,.711.474c.049.081-.022.207.027.289a2.394,2.394,0,0,1,.333,1.538c0,.552-.316,1.014-.235,1.5.256.1.43-.106.706-.192.36-.171.729-.418,1.114-.644.057.007.113.013.121-.063.075.008.172-.191.229-.185.006-.057.15.015.15.015.127-.119.418-.165.582-.281a2.747,2.747,0,0,1,.59-.356,6.037,6.037,0,0,0,.648-.2c.272-.048.342-.173.549-.152.414.044.51.4.828.64a3.017,3.017,0,0,1-.285,1.968c-.07.125-.036.338-.106.465a9.671,9.671,0,0,0-.641.845.253.253,0,0,0-.144.1,2.134,2.134,0,0,1-.253.411,2.427,2.427,0,0,1-.755.662c-.174.934-1.08,1.047-1.2,2.138.112.563.876.168,1.248.074.336-.117.3-.273.593-.394a.864.864,0,0,0,.342-.173c.162-.1.245-.336.522-.44a3.4,3.4,0,0,0,.506-.289,2.206,2.206,0,0,0,.442-.41c.288-.2.413-.489.632-.58a1.98,1.98,0,0,0,.439-.372,6.607,6.607,0,0,1,.577-.415.5.5,0,0,0,.143-.1c.023-.036.062-.05.1-.085.124-.1.231-.2.268-.2.543-.267.944-.471,1.328-.678l.148-.136a2.891,2.891,0,0,1,.506-.29,2.321,2.321,0,0,0,.67-.4c.068.083.692-.422.692-.422.044-.053.133.185-.148.5v.019l-1.376.768c-.166.135-.377.322-.52.421-.3.177-.494.176-.74.341a4.664,4.664,0,0,1-.543.285l-.269.2c-.209.168-.643.5-.853.69a6.954,6.954,0,0,0-.674.614,7.625,7.625,0,0,0-.73.608c-.165.117-.592.376-.739.512-.216.054-.537.4-.815.5-.083.068-.427.259-.51.327a1.966,1.966,0,0,1-1.078.115c-.4.033-.293-.107-.672-.3-.131-.2-.1-.486-.28-.771a1.721,1.721,0,0,1-.108-.773c0,.019.079-.03.083-.067a1.433,1.433,0,0,1-.032-.422,5.976,5.976,0,0,1,.62-1.362,8.569,8.569,0,0,1,.857-1.089c.1-.2.268-.371.346-.572a3.341,3.341,0,0,0,.294-.254c.081-.048.021-.208.1-.256a4.734,4.734,0,0,0,.828-1.168,4.985,4.985,0,0,0-1.5.47,7.7,7.7,0,0,0-1.047.726c-.006.056-.213.034-.275.085-.242.127-.328.4-.576.225a2.721,2.721,0,0,1-1.2.9c-.284.522-.762.548-1.206.976-.084.067-.1.218-.187.322,0,0-.131-.014-.139.062-.154.193-.3.311-.472.5-.138.042-.078.2-.224.319-.229.185-.872.326-1.106.016-.075-.008-.061-.14-.061-.14l-.207-.022a3.291,3.291,0,0,1-.019-1.086,2.924,2.924,0,0,1,.28-.674c.089-.124.221-.11.294-.254.087-.105.028-.264.117-.388A28.084,28.084,0,0,0,212.5,47.9c.081-.048.1-.274.117-.388a1.3,1.3,0,0,0,.373-1.007c-.236-.292-.568.15-.974.03a2.5,2.5,0,0,1-1.179.713c-.064.07-.216.054-.283.16-.132-.014-.223.129-.306.2a5.214,5.214,0,0,1-.58.263,5.656,5.656,0,0,0-.522.439c-.138.042-.288.027-.352.1a3.534,3.534,0,0,1-1.406.879,22.224,22.224,0,0,1-1.81,1.465c-.078.2-.253.411-.329.594a1.424,1.424,0,0,0-.388.435c-.472.5-.648.9-1.608.8-.177-.3-.494-.547-.509-.948-.039-.346.2-.607.427-.983.1-.218.111-.33.208-.53,0,0,.14-.061.148-.136a5.616,5.616,0,0,0,.669-1.109,5.681,5.681,0,0,1,.346-.573l.41-.641c.164-.288.265-.524.077-.544a2.954,2.954,0,0,0-1.181.541l-.929.511c-.165.116-.379.341-.542.438-.3.177-.494.176-.739.341a6.723,6.723,0,0,1-.684.346s-.337-.054-.25-.16Z" transform="translate(-3.677 -3.5)"/>
      <path class="cls-2" d="M233.392,53.7a6.911,6.911,0,0,1-1.076.267,3.324,3.324,0,0,0-.527.03,3.007,3.007,0,0,1-.508-.063c-.241-.049-.089-.037-.4-.138a1.214,1.214,0,0,1-.411-.255c-.341-.126-.424.185-.609.244a12.9,12.9,0,0,1-2.044.864,10.92,10.92,0,0,1-1.7.3,2.2,2.2,0,0,1-.564-.075,1.493,1.493,0,0,1-.705-.141c-.082-.075-.56-.382-.764-.52a2.236,2.236,0,0,1-.567-2.371,3.459,3.459,0,0,1,1.014-1.882,3.929,3.929,0,0,1,.816-.608l.356-.237c.148-.067.181-.234.311-.3a1.231,1.231,0,0,0,.342-.067c.082-.022.115-.189.171-.178.133-.09.3-.056.422-.089a4.613,4.613,0,0,1,1.963-.07,3.52,3.52,0,0,1,.6.178c.074.014.1.193.152.2s.178-.022.223.045a1.233,1.233,0,0,1,.419.6c.516-.07.686.331.917.628a2.024,2.024,0,0,1,.352,1.614,1.772,1.772,0,0,1-.345.761c-.167.256-.312.5-.5.787a1.2,1.2,0,0,0,.927.474c.319.045.171.016.546-.025l.155-.008c.071-.062.278-.04.753-.2a5.743,5.743,0,0,1,.695-.286,4.71,4.71,0,0,0,.619-.3c.23-.089.267-.178.431-.223a2.133,2.133,0,0,0,.735-.3c0,.018.189-.078.208-.074l.531-.241c.044-.03.111.215-.212.479,0,0-.186.059-.349.1l-1.444.656a1.051,1.051,0,0,1-.278.137l-.23.089Zm-3.4-.546a5.475,5.475,0,0,1-.574-2.816,2.664,2.664,0,0,1,.345-.857c-.078-.285-.112-.408-.612-.508-.353-.07-.72.126-1.4.512-.048.241-.457.352-.6.5a5.536,5.536,0,0,1-.572.542c-.282.349-.349.2-.7.593a4.985,4.985,0,0,0-.616.861c-.018,0-.385.482-.385.482a5.5,5.5,0,0,0-.235.783,1.088,1.088,0,0,0,.164.823,1.834,1.834,0,0,0,.92.416,2.356,2.356,0,0,0,1.124-.026c.471-.137.9-.148,1.291-.281a7.673,7.673,0,0,0,.787-.363c.119-.015.375-.234.449-.219.1-.115.3-.134.308-.189C229.912,53.255,229.949,53.359,229.99,53.155Zm1.265-1.792a1.057,1.057,0,0,0-.53-1.3c.051.319-.461.275-.56.486a3.392,3.392,0,0,0-.053,1.61c.041.182.2.524.389.561A2.488,2.488,0,0,0,231.255,51.363Z" transform="translate(-3.677 -3.5)"/>
      <path class="cls-2" d="M234.072,53.148a7.02,7.02,0,0,1,.659-.247,4.636,4.636,0,0,0,.645-.27c.223-.094.249-.186.415-.218a2.345,2.345,0,0,0,.729-.286c.053.094.752-.3.752-.3.005-.018.036.01.044.052l.783-.409a1.488,1.488,0,0,0,.167-.385c.066-.237.1-.484.153-.683.179-.638.534-.361.823-.692.492.139,1.128.318,1,.773-.092.328-.535.577-.627.9-.1.345.421,1.3.238,1.245a2.834,2.834,0,0,1,.289,1.908,7.82,7.82,0,0,1-1.059,1.392,5.311,5.311,0,0,0-1.094.675c-.2.081-.164-.047-.552.355-.251.264-.881.479-1.006.994a.3.3,0,0,0,.168.382,1.658,1.658,0,0,0,.889.053,2.56,2.56,0,0,0,.589-.208,11.067,11.067,0,0,0,1.36-.364c.161-.013.329-.123.495-.155.149-.037.294,0,.387-.048.161-.014.256-.144.35-.2a4.564,4.564,0,0,0,1.139-.347c.325-.106.867-.287,1.316-.416.1-.089.163-.092.713-.232l.449-.129.625-.2a1.083,1.083,0,0,1,.256-.143,2.631,2.631,0,0,1,.56-.177l.161-.013.377-.15.2-.1a.019.019,0,0,0,.013.023l.827-.357a.649.649,0,0,1-.173.4l-.27.121s-.088.034-.347.118l-1.071.386c-.2.082-.42.235-.574.291a3.9,3.9,0,0,1-.539.1l-.065.021-1.4.492a6.985,6.985,0,0,0-1.055.469,5.25,5.25,0,0,0-1.473.488l-1.064.291a6.185,6.185,0,0,1-2.786.473c-1.11-.313-.878-1.348-.734-1.858.338-1.2,1.615-1.9,2.49-2.913.357-.293.686-.554.757-.808.093-.328-.165-1.225-.457-1.307-.564-.159-.693.158-1.456.356l-1.823.685a1.509,1.509,0,0,1-.3.17,1.568,1.568,0,0,1-.407.121l-.018-.005-.571.213-.462.106a.494.494,0,0,1-.279-.2A6.491,6.491,0,0,1,234.072,53.148Z" transform="translate(-3.677 -3.5)"/>
      <path class="cls-2" d="M243.907,56.238s.151-.021.261-.038a.749.749,0,0,1,.207-.06c.358-.08.91-.185,1.517-.328l.186-.109a2.884,2.884,0,0,1,.566-.14,2.351,2.351,0,0,0,.756-.207c.042.1.78-.216.78-.216.007-.018.017.007.028.031l.387-.151a9.207,9.207,0,0,1,1.248-.824l.017.007c.071.028.183.053.218-.034.007-.018,0-.06.011-.077a.932.932,0,0,1,.544-.087c.193.077.73.517.547.974a3.476,3.476,0,0,1-.612.712c-.028.071-.035.19-.063.26-.113.281-.528.3-.661.632-.07.175-.472.361-.742.782a1.347,1.347,0,0,0-.914.959c-.45.308-1.35.824-1.47,1.122a.891.891,0,0,0,.277.172,1.986,1.986,0,0,0,1.571-.1l-.011-.024c.53.049,1.511-.515,1.669-.452.39-.007.911-.288,1.265-.308.921-.262,2.1-.419,3.053-.752.626-.136,1.02-1.017,1.923-.88a.9.9,0,0,1,.181,1.174c-.458,1.141-1.169,2.507-1.925,3.935-.2.492-.37.973-.553,1.429a5.438,5.438,0,0,1-.591,1.17c-.141.351-.689.8-.829,1.154.011.024.045.039.08.053.51.2,1.033.17,1.594.4.808.324,1.584.677,1.3,1.379a1.7,1.7,0,0,1-1.985.834c.289-.72,1.156-.189,1.5-1.05.007-.017.018-.4-.245-.505a6.038,6.038,0,0,1-.611-.205c-.579-.232-1.509-.3-1.773-.405-.544.087-1.027.73-1.5,1.15-.309.365-.481.235-.685.54a1.06,1.06,0,0,1-.566.344,5.153,5.153,0,0,1-1.49.565c-.542.231-1.652.458-1.824.532-.967.122-1.149.069-2.069.128a6.039,6.039,0,0,1-2.7-.33c-.439-.176-1.362-.668-1.038-1.477a.919.919,0,0,1,.682-.582.326.326,0,0,1,.193-.025.143.143,0,0,1,0-.1c.035-.088.059-.1.1-.085s.045.039.063.046c.263.106.935-.4,1.539-.483a20.372,20.372,0,0,1,2.853-.506.789.789,0,0,1,.261-.038.532.532,0,0,1,.126.091c1.444-.3,2.878-.109,3.882-.277.246-.309.562-.59.791-.906a8.585,8.585,0,0,0,.764-1.14,4.473,4.473,0,0,0,.933-1.461c.246-.614.454-1.285.715-1.934a10.544,10.544,0,0,1,1.407-1.983c0-.043-.014-.067-.032-.074-.07-.028-.179.09-.179.09-.474-.19-.559.326-1.015.143-.175-.07-.32.136-.418.179-.386.049-.667.038-.731.2a.068.068,0,0,1,0,.042c-.172.074-.428-.151-.668.14a.688.688,0,0,1-.379-.071,11.522,11.522,0,0,1-2.783.84,3.641,3.641,0,0,1-1.844.279,2.677,2.677,0,0,1-1.282-.107,1.94,1.94,0,0,1,.019-1.724,3.738,3.738,0,0,1,.528-.909c.071-.176.3-.348.422-.646.261-.65,1.076-.852,1.245-1.273a.041.041,0,0,0-.021-.049.2.2,0,0,1-.084.007c-.106.06-.355.123-.454.165l-1.156.29c-.165.057-.327.155-.46.183-.34.087-.523.034-.8.125a6.7,6.7,0,0,1-.752.147s-.309-.144-.2-.221Zm5.437,11.088a1.737,1.737,0,0,0,.679-.726l-.649-.057a2.975,2.975,0,0,0-1.142.052c-.492.21-.917-.2-1.556.069a12.032,12.032,0,0,0-1.852.3,3.277,3.277,0,0,1-.727.035,7.167,7.167,0,0,0-.977.4c-.172.073-.393-.036-.538.069-.4.45-1.015.347-1.156.7-.119.3.27.5.428.559a4.136,4.136,0,0,0,1.191.233,7.447,7.447,0,0,0,4.542-.5c.576-.114.928-.687,1.128-.729Z" transform="translate(-3.677 -3.5)"/>
    </g>
    <path class="cls-2" d="M43.387,116.09c-.452.432-.756,1.01-1.154,1.414a1.287,1.287,0,0,1-.293.242.988.988,0,0,1-.266.216,1.819,1.819,0,0,1-.334.15c-.066.015-.08.081-.173.122-.119.068-.267.136-.453.244a.112.112,0,0,0-.134.028,2.6,2.6,0,0,1-.615.112,1.43,1.43,0,0,1-.187-.053c-.067.014-.133.081-.2.1-.027,0-.067-.04-.094-.04a1.019,1.019,0,0,0-.281-.039c-.134-.025-.281.016-.361-.01-.041-.013-.094-.093-.175-.119-.027-.027-.067-.013-.135-.053s-.148-.119-.269-.212c-.161-.08-.348-.052-.5-.17-.242-.186-.365-.493-.607-.651a4.146,4.146,0,0,0-.3-.8.62.62,0,0,0-.03-.509,4.229,4.229,0,0,0,.075-.67c.013-.04.039-.121.052-.16a.276.276,0,0,0-.027-.08c.013-.041.093-.068.092-.094s-.014-.121,0-.188a3.057,3.057,0,0,1,.2-.657,1.408,1.408,0,0,1,.117-.363c.08-.161.226-.256.344-.457.04-.067.039-.147.066-.174a.723.723,0,0,1,.265-.35c.253-.229.56-.219.826-.488.241,0,.494-.124.708-.126.241-.028.669-.112.871.087.082.16.242.186.31.305.082.214.175.146.2.306a3.818,3.818,0,0,1-.062.657c-.026.133-.225.282-.306.364-.133.134-.306.122-.412.23a1.6,1.6,0,0,1-.646-.45c-.243-.24.106-.242-.071-.495a.887.887,0,0,1,.132-.4c-.3-.185-.548.178-.881.381-.186.108-.24.109-.358.364a.7.7,0,0,1-.079.214c-.079.108-.212.189-.279.283-.212.3-.182.8-.327,1.087a3.606,3.606,0,0,1-.1.776c0,.054.041.094.054.16-.026.081-.079.135-.053.188-.013.04.068.119.068.173s-.013.094-.025.134c.162.16.136.347.191.507a1.751,1.751,0,0,0,.525.465c.148.093.255.2.323.239.175.092.241.025.389.037a5.927,5.927,0,0,1,.631.222c.133-.081.28-.042.454-.057.08-.028.08-.081.133-.082.214-.055.374-.083.588-.138.08-.08.147-.094.2-.148a3.413,3.413,0,0,0,.679-.554A1.668,1.668,0,0,0,42,116.8c.013-.013.013-.067.052-.107a1.616,1.616,0,0,0,.41-.606,1.96,1.96,0,0,0,.185-.323c.132-.242.157-.536.3-.818a10.939,10.939,0,0,0,.072-1.151.85.85,0,0,1,0-.188c.013-.041.066-.121.039-.174-.015-.174-.043-.362-.071-.522a3.4,3.4,0,0,0-.059-.722c-.028-.107-.056-.294-.084-.455-.082-.294-.205-.627-.288-1a.865.865,0,0,0,0-.322,2.537,2.537,0,0,0-.136-.267c-.014-.093-.042-.254-.056-.321-.068-.2-.164-.427-.233-.68-.163-.4-.341-.841-.531-1.268a.829.829,0,0,1-.164-.347,1.2,1.2,0,0,0-.082-.294,5.643,5.643,0,0,0-.366-.492c-.028-.08-.015-.174-.055-.241.026-.081-.054-.08-.041-.147a2.373,2.373,0,0,0-.19-.373,7.008,7.008,0,0,1-.433-.666c-.068-.119-.123-.306-.2-.44-.027-.053-.094-.093-.162-.187-.027-.053-.042-.173-.082-.24-.027-.027-.108-.079-.121-.119-.014-.014.039-.068,0-.107a4.073,4.073,0,0,1-.3-.427,5.662,5.662,0,0,1-.394-.706,14.86,14.86,0,0,1-.785-1.279,4.82,4.82,0,0,0-.435-.88c-.339-.6-.584-1.215-.909-1.72-.253.176-.237.537-.369.86-.026.107-.105.188-.118.254-.04.095-.079.215-.131.323a2.639,2.639,0,0,0-.037.308,6.647,6.647,0,0,0-.29.618c-.066.174-.145.362-.237.59a5.021,5.021,0,0,0-.183.591c-.144.416-.075.8-.191,1.192a1.39,1.39,0,0,1,.057.616c.107.026.055.16.083.24.2.36.781.69.57,1.067a1.164,1.164,0,0,1-.658-.357c-.053.054-.162-.213-.216-.266-.241,0-.351-.292-.433-.532a3.288,3.288,0,0,1-.058-.669,2.162,2.162,0,0,1,.035-.709,6.63,6.63,0,0,1,.3-.979c.065-.2.131-.4.2-.63a8.88,8.88,0,0,1,.552-1.289c.052-.215.1-.456.156-.644.054-.08.133-.134.146-.174a5.023,5.023,0,0,1,.157-.483,6.924,6.924,0,0,0,.236-.672c.026-.054.013-.067.026-.107,0-.08.079-.215.078-.322a3.264,3.264,0,0,0-.1-.441,1.115,1.115,0,0,1-.069-.228.938.938,0,0,1-.083-.321c.013-.04.04-.067.026-.107s-.081-.16-.122-.227c0-.054.066-.148.039-.2,0-.08-.054-.133-.042-.174a1.178,1.178,0,0,1,.051-.455c.012-.067-.041-.093-.068-.146,0-.027.026-.054.04-.095.011-.254.049-.589.087-.9.013-.093,0-.188.011-.227s.081-.054.08-.081c.039-.067.013-.12.039-.147a2.292,2.292,0,0,1,.518-.472c.2.065.415-.016.576.144.27.265.019.682.075,1.056.014.066.123.227.136.32.04.04-.013.093,0,.107a.727.727,0,0,1,.095.227c0,.053.015.147.015.2a2.751,2.751,0,0,1,.26.814,4.238,4.238,0,0,1,.393.653c-.013.041-.026.107,0,.134s.094.066.094.093c.026.053,0,.134.028.187.068.093.149.173.189.239a3.274,3.274,0,0,0,.192.641c.014.041.041.067.055.107s.054.133.1.254a4.852,4.852,0,0,1,.544,1.12,2.74,2.74,0,0,1,.42.706c.082.16.176.253.23.36a8.768,8.768,0,0,1,.774,1.454c.04.066.027.107.081.16a3.97,3.97,0,0,0,.217.346c.149.28.3.586.488.907a1.239,1.239,0,0,1,.2.333c.027.027.108.16.149.2.013.041-.039.121-.012.175a1.633,1.633,0,0,1,.23.333c.108.186.15.494.246.721a1.151,1.151,0,0,1,.272.56,1.352,1.352,0,0,1,.137.561c.109.133.123.253.244.373-.106.215.07.414.125.628.027.053.015.148.042.2-.013.12.1.253.136.374a.811.811,0,0,1,.042.227,1.148,1.148,0,0,1,.123.361c.041.093.015.147.028.213-.012.068.041.147.056.187a2.833,2.833,0,0,0,.084.535c.014.12-.052.268,0,.4l.043.361c.028.107,0,.24.044.361-.013.067.041.12.041.2.027.053,0,.107,0,.161.014.121.029.268.043.388-.013.068-.08.135-.052.242-.013.067.041.12.015.174a.572.572,0,0,1-.038.228c-.012.228-.01.5-.021.8a2.028,2.028,0,0,1-.038.255c-.026.188.043.415.031.562a2.142,2.142,0,0,0-.145.308,3.105,3.105,0,0,1-.261.939A2.49,2.49,0,0,0,43.387,116.09Z" transform="translate(-3.677 -3.5)"/>
    <path class="cls-2" d="M56.756,97.658a1.3,1.3,0,0,1,.024-.307l.329-1.368a.8.8,0,0,1,.006-.187,2.94,2.94,0,0,1,.113-.572,2.345,2.345,0,0,0,.134-.772c.107,0,.135-.8.135-.8s.027-.026.067-.012l0-.027.05.083a.636.636,0,0,1,.114.2l.076.109-.323,1.6c-.034.213,0,.522-.038.708-.066.345-.191.489-.228.782l-.094.425,0,.027c-.02.2.05.109.026.416a4.291,4.291,0,0,0-.073.948,11.443,11.443,0,0,1-.207,1.721,4.36,4.36,0,0,1-.178.891c-.031.132-.047.587-.124.866a2.881,2.881,0,0,1-.6,1.13c-.311.472-1.06.446-1.847-.4a2.011,2.011,0,0,1-.356-.549c-.051-.082-.117-.1-.168-.179a1.544,1.544,0,0,1-.059-.2,1.636,1.636,0,0,1-.149-.353.98.98,0,0,1-.019-.214c-.024-.082-.077-.11-.1-.191-.2-.717-.334-1.552-.521-2.362-.011-.067.017-.119.006-.187s-.088-.151-.1-.218l-.143-.514c-.073-.216-.066-.431-.152-.634l-.109-.339c-.038-.068-.06-.2-.221-.182l-.125.116a3.957,3.957,0,0,0-.848,2.06c-.005.134-.235.22-.171.677a1.589,1.589,0,0,1-.194.569,4.208,4.208,0,0,1-.192.9c-.03.08.037.484-.041.4-.08.386.076.5-.089.653a16.626,16.626,0,0,0-.175,1.949c.026.027.037.872.06,1.368.022.523.186,1.2-.2,1.56-.277.258-.6.381-.822.146-.8-.858-.613-1.628-1.043-2.782a4.772,4.772,0,0,0-.2-.744c-.345-.869.035-1.017-.462-2.1-.149-.326-.529-.568-.642-.411a3.229,3.229,0,0,0-.439,1.471,2.132,2.132,0,0,1-.019.923l-.017.119.022.135a.221.221,0,0,1-.016.067,1.748,1.748,0,0,1-.075.64l-.226,1.09a2.142,2.142,0,0,1-.015.428,5.614,5.614,0,0,1-.18.583l-.177.864-.041.039c.013.014-.015.039-.015.039a.679.679,0,0,1-.123.09l-.236.22a.784.784,0,0,0,.062-.239c-.023-.108-.007-.175.146-.732l.2-.756.061-.212a3.977,3.977,0,0,1,.034-.575c.035-.24,0-.254.055-.413a2.337,2.337,0,0,0,.133-.772c.027,0,.056-.051.072-.145a6.2,6.2,0,0,1,.06-.962,8.3,8.3,0,0,1,.261-1.719,1.074,1.074,0,0,1,.3-.565,1.64,1.64,0,0,1,.476-.211c.365-.135,1.1.4,1.407.732a6.454,6.454,0,0,1,1.124,1.98,2.879,2.879,0,0,0,.323-1.208c.207-.944.315-1.743.512-2.781.18-.168.106-.358.112-.519.457-.426-.086-.98.854-1.859a3.358,3.358,0,0,1,.408-.562c.3-.283.676-.163,1,.182a4.337,4.337,0,0,1,.423.537c.038.041.156.112.247.209a3.774,3.774,0,0,1,.586,1.266c.049.135.215.368.263.5.122.353.223.543.334.8a11.02,11.02,0,0,0,.24,1.589,4.549,4.549,0,0,0,.549,1.559c.1.138.24.035.295-.016a1.3,1.3,0,0,0,.362-.777c.046-.173.085-.519.119-.733s.2-.889.227-1.144a4.2,4.2,0,0,0,.111-1.241c-.01-.094.089-.653.079-.748-.018-.241.028-.414.007-.576a.059.059,0,0,1-.012-.041A.565.565,0,0,1,56.756,97.658Z" transform="translate(-3.677 -3.5)"/>
    <path class="cls-2" d="M68.814,93.186c.073-.059.135-.168.189-.212a.715.715,0,0,1,.458-.1c.529-.308,1.551-1.191,2.035-1.072.091-.074.1-.138.189-.212a2.049,2.049,0,0,1,.715-.337c.271-.219.412-.452.667-.657.779-.627,1.511-1.277,2.435-2.022a1.7,1.7,0,0,0,.283-.169,4.917,4.917,0,0,1,.542-.736c.333-.477.866-.817,1.141-1.367a2.19,2.19,0,0,1,.391-.554c.3-.662.6-.962.639-1.321.39-.853.437-1.609.694-2.144a8.044,8.044,0,0,0,.214-1.219,21.439,21.439,0,0,0,.5-2.612.1.1,0,0,1,.04-.062c.036-.029.087-.041.175.069.35.435-.088,1.746-.112,2.123-.1.288.019.284-.169.645a10.41,10.41,0,0,1-.156,1.142,6.093,6.093,0,0,0-.24.7c.022.1-.54,1.63-.54,1.63.018-.014-.6,1.227-.8,1.6-.267.484-1.194,1.561-1.752,2.279-1.16.935-2.189,1.883-2.949,2.5a16.7,16.7,0,0,1-1.941,1.265,6.451,6.451,0,0,0-.911.465c-.09.073-.148.149-.238.223-.114-.029-.153-.116-.426.1-.09.073-.166.164-.256.237a.657.657,0,0,0-.462.132c-.09.074-.151.182-.225.241a3.47,3.47,0,0,0-1.331.536.37.37,0,0,0-.12.185,1.871,1.871,0,0,0-1.136.409c-.219.175-.29.531-.481.775-.345.277-.88.949-1.732,1.635a2.266,2.266,0,0,0-.839.407c-.054.044-.094.106-.148.149a.366.366,0,0,1-.374.093,1.025,1.025,0,0,1-.186.179.906.906,0,0,1-1.075.149.682.682,0,0,1,.306-.845c.219-.175.5-.343.736-.533.145-.117.316-.315.443-.416.634-.511,1.473-.769,2.053-1.236a1.676,1.676,0,0,0,.518-.656c-.19-.235.312-1.059.4-1.248a2.9,2.9,0,0,1,.26-1.644c-.237-1.036.075-2.094-.245-3.122a4.072,4.072,0,0,0-.046-.948c0-.3-.17-.731-.215-1.083a6.689,6.689,0,0,0-.66-2.637,2.8,2.8,0,0,0-.762.465c-.381.306-.754.7-1.17,1.033a6.74,6.74,0,0,1-.574.4,4.652,4.652,0,0,0-1.044.484c-.163.131-.348.31-.511.442-.918.381-1.86.363-2.386.787a8.7,8.7,0,0,0-1.4.2,5.431,5.431,0,0,0-1.464.224,7.166,7.166,0,0,1-3.909-1.066l-.073-.091c-1.183-1.467-.311-3.576.65-4.35a12.477,12.477,0,0,1,2.8-1.272c.61.016,1.17-.256,1.862.083a3.338,3.338,0,0,1,2.479,1.112,1.1,1.1,0,0,1-.111,1.644c-.149,0-.507.26-.843-.157-.439-.544-.211-.967.166-1.39a3.786,3.786,0,0,0-2.762-.943,8.469,8.469,0,0,0-3.075,1.193A3.164,3.164,0,0,0,51.909,84.9a1.335,1.335,0,0,0,.017.763c.044.054.092.076.15.148.044.055.055.105.1.16.7.869,1.77.785,3.731,1.179.171-.048.378-.126.548-.173a1.657,1.657,0,0,0,.491.053.086.086,0,0,1,.025-.08l.066.007a16.283,16.283,0,0,0,3.432-.824,2.806,2.806,0,0,0,.391-.255c.127-.1.24-.223.385-.339a3.827,3.827,0,0,1,1.256-.594c.562-.452,1.265-.989,1.827-1.443.707-.569.513-.921.435-1.277a2.993,2.993,0,0,1-.264-.773c-.45-1.969-.975-4.029-1.312-5.969-.124-1.3-.7-3.022-.129-4.649a1.9,1.9,0,0,1,.481-.776c.869-.7,1.336-.27,1.879-.079.669.238,1.084.233,1.61.885a6.1,6.1,0,0,1,1.514,4.4.285.285,0,0,1,.109.061c.03.036.03.036-.151.182a4.5,4.5,0,0,1,.05.916c-.036.178-.075,1.167-.09,1.148l.018-.014a1.538,1.538,0,0,1-.249.47.024.024,0,0,1,0-.033c-.068.324-.045.575-.085.786-.051.161-.2.277-.239.372a2.091,2.091,0,0,0-.048.458,5.115,5.115,0,0,1-.93,1.556c-.264,1.08.9,2.233.553,3.022.742,1.106.606,2.68.818,4.094a2.683,2.683,0,0,1-.17,1.571c.172.4-.071.356-.053.491-.013.131.188.566-.066.771-.181.146-.066.142.012.349-.127.1-.3.812-.713,1.712-.069.175,0,.415-.195.575C67.847,93.876,68.368,93.188,68.814,93.186ZM67.673,78.71c.076-1.316.576-2.885.347-3.539a3.76,3.76,0,0,0-.607-2.2,4.267,4.267,0,0,0-.688-1.448c-.7-.871-1.228-.745-2.04-1.2a1.48,1.48,0,0,0-.373.241,1.939,1.939,0,0,0,.007.861c.055.255-.029.412,0,.563a5.256,5.256,0,0,0,.593,1.885,13.73,13.73,0,0,0,.972,3.431,7.723,7.723,0,0,0,.407,1.915c-.127.1.037.418.052.436.029.036.059.072.087.109.059.072.02.581.268.889.018-.014.054-.044.073-.058.417-.336.482-1.107.63-1.406A1.619,1.619,0,0,1,67.673,78.71Z" transform="translate(-3.677 -3.5)"/>
    <path class="cls-2" d="M170.946,43.376c.308-.021.458-.267.565-.532a20.053,20.053,0,0,0,1.815-2.7c.5-.592.876-1.2,1.374-1.811a13.029,13.029,0,0,0,1.181-1.605c.3.151.249-.318.576-.7.153-.2.492-.378.664-.6.077-.09.121-.394.224-.4.658-.367.971-.99,1.638-1.529.077-.09.185-.012.241-.1a3.722,3.722,0,0,1,1.438-.764,2.257,2.257,0,0,1,.7.232c1.167.2,1.213.626,1.631,1.392a4.266,4.266,0,0,1,.684,1.392c.066,1.091.226,2.348.3,3.5-.013,1.139-.3,2.19-.244,3.088.01.171-.024.281.2.265.862-.058,1.3-1.313,1.391-1.534a2.966,2.966,0,0,0,.244-.4c.133-.18.446-.8.851-.917.188-.313.251-.619.488-.785.1-.092.344-.109.42-.221.178-.12.168-.291.244-.4.159-.1.282-.106.4-.221.077-.092.071-.2.271-.3.226-.015.774-.825,1.473-.873.329-.022,1.2.111,1.423.676a2.852,2.852,0,0,1,.5,1.427,9.861,9.861,0,0,1-.184,2.053c-.079,1.079-.535,2.055-.658,3.417-.594,2.425-1.939,5.395-1.805,7.577a6.193,6.193,0,0,0,1.437,3.274c.264.283.626.452.814.825.621.044,1.059.465,1.682.53a6.983,6.983,0,0,0,.97.021,7.272,7.272,0,0,0,3.435-1.157,6.1,6.1,0,0,1,1.392-1.169,13.449,13.449,0,0,1,.908-1.007c.072-.176.048-.561.208-.658a.928.928,0,0,1,.166.032c.1-.007.182-.4.367-.412a.215.215,0,0,1,.146.033c.057.941-.634,1.1-.76,1.748a2.838,2.838,0,0,0-.884,1.049,8.956,8.956,0,0,1-4.881,2.136.816.816,0,0,1-.333-.064c-.062,0-.137.117-.261.125a2.954,2.954,0,0,1-1.679-.487c-.171-.1-.432.03-.52-.072a6.419,6.419,0,0,1-1.357-.94c-.005-.085-.149-.075-.149-.075-.117-.229-.242-.585-.4-.853-.456-.377-1.676-1.433-1.865-4.534a12.691,12.691,0,0,1,.923-4.81,16.987,16.987,0,0,1,.709-2.562,8.715,8.715,0,0,0,.709-2.561,5.309,5.309,0,0,0,.472-2.072,2.543,2.543,0,0,0-.123-.657c-.677.045-.844.358-1.411.868-.157.118-.321.129-.4.221-.4.242-1.177,1.326-1.321,1.336a.277.277,0,0,1-.241.1,4.7,4.7,0,0,0-.7,1.294c-.154.183-.4.2-.491.4a3.855,3.855,0,0,1-.962,1.462c-.062,0-.049.218-.044.3A13.36,13.36,0,0,0,182.282,48a18.143,18.143,0,0,0-1.058,3.617,1.8,1.8,0,0,1-1.13.742.543.543,0,0,1-.584-.454.823.823,0,0,1-.627-.816,7.5,7.5,0,0,1,.261-1.8c.144-.676.219-1.476.335-1.935.065-.283.212-.573.3-.879.2-.765.405-1.811.679-2.71.076-.456.237-.854.325-1.44-.007-.107.188-.313.182-.4a27.143,27.143,0,0,0,.644-4.984,8.711,8.711,0,0,1,.2-1.088c-.061-.983-.209-2.391-1.03-2.335a2.565,2.565,0,0,0-1.5.811,9.234,9.234,0,0,0-1.387,1.254,12.021,12.021,0,0,0-.785.977c-.481.913-1.528,1.672-2.241,2.816-.1.114.014.214-.084.307a5.756,5.756,0,0,0-1.373,1.832,5.312,5.312,0,0,1-1.247,1.869c.006.085-.006.236-.109.244-.041,0-.085-.037-.146-.033,0,.064.048.1.05.147l-.056.09c-.021,0-.066-.06-.127-.055a5.973,5.973,0,0,1-.3.772,15.153,15.153,0,0,0-.863,2.078c-.055.111-.213.208-.284.405.019.321-.019.367-.3.794-.077.09-.067.24-.183.377-.128.266-.388.413-.454.675a2.9,2.9,0,0,0-.289,1.008c-.406.779-.918,2.532-1.411,2.565-.389.027-1.051-.336-1.07-.657a6.423,6.423,0,0,1,.351-1.678c.289-1.33.365-2.129.71-3.571a6.918,6.918,0,0,0,.523-2.248c-.019-.3-.132-.484.257-.855.313-1.611.724-3.679,1.115-5.382a6.915,6.915,0,0,0,.389-2.067,8.039,8.039,0,0,0-.347-1.953c-.005-.086-.195-.159-.306-.28-.069-1.134-.938-1.183-.83-1.1-.083.006-.088-.079-.176-.181-.185.012-.347.066-.511.077-.616.042-.148-.4-1.134-.331a9.65,9.65,0,0,0-4.809,1.96c-.232-.07-.688.562-1.319,1.035-.152.2-.44.223-.557.318-.1.113-.189.291-.34.516a1.56,1.56,0,0,0-.519.294c-.083.006-.069.219-.125.309a7.641,7.641,0,0,0-2.256,2.9c-.141.4-.106.975-.272,1.286.377.426.246.992.524,1.489.235.456.74.638,1.37.83a5.991,5.991,0,0,0,2.044.377c1.93-.132,3.865-1.552,4.249-3.017-.441-.12-.959-.171-1.174-.651a2.928,2.928,0,0,1,.564-.9c.909.023,1.506.348,1.561,1.246a3.549,3.549,0,0,1-.07.542c.005.086-.276.212-.326.409-.147.289-.384.8-.55,1.112-.077.092-.406.114-.579.319-.16.1-.149.268-.305.407-.18.1-.427.116-.606.213-.5.313-.41.371-.842.4-.555.037-.822.378-1.089.4a1.709,1.709,0,0,1-.57.124,5.469,5.469,0,0,1-1.685-.25,4.543,4.543,0,0,1-2.2-.86q-.326-.268-.455-.356c-.1-.208-.12-.614-.245-.97-.019-.3-.205-.652-.221-.93a4.731,4.731,0,0,1,.208-.981c.065-.284.048-.583.095-.823.069-.219.345-.41.569-.812-.021-.343.248-.318.242-.425.055-.111.044-.282.141-.4s.337-.216.512-.379a14.237,14.237,0,0,1,2.86-2.472c-.023-.041.046-.261.087-.263s.1.036.167.032a7.146,7.146,0,0,1,.635-.731,11.457,11.457,0,0,0,1.659-.865,5.371,5.371,0,0,0,.79-.225,6.253,6.253,0,0,1,2.03-.869c.267-.017.516.008.578,0,.306-.042.531-.079.737-.093a3.818,3.818,0,0,1,2.788,1.078,2.233,2.233,0,0,0,.479.763c-.092.178.274.432.451.635.1.273.117.551.216.823a4.477,4.477,0,0,1,.42,1.476,14.044,14.044,0,0,1-.416,4.323c.006.108-.153.2-.153.2a2.593,2.593,0,0,0-.02.688,10.372,10.372,0,0,0-.189,1.646,1.06,1.06,0,0,0,.037.255A.48.48,0,0,0,170.946,43.376Z" transform="translate(-3.677 -3.5)"/>
  </g>
  <g id="Layer_2" data-name="Layer 2">
    <path class="cls-3" d="M203.984,152.356c-4.333-1.8-5.494-5.3-3.99-9.74a16.484,16.484,0,0,0,.124-10.848c-3.277-9.386-14.039-11.038-26.549-7.924,1.564,4.339,3.126,8.658,4.694,13.007l.6,1.648-1.739-.237a10.347,10.347,0,0,0-8.871,3.1l-1.212,1.267-.562-1.66c-1.479-4.38-2.945-8.733-4.421-13.1-11.728,5.348-19.126,13.339-15.849,22.726A16.5,16.5,0,0,0,153.051,159c3.945,2.542,5.214,6,2.941,10.107-4.733,8.556-6.051,18.624-2.941,27.534,5.956,17.06,25.134,21.376,44.567,14.592s31.757-22.1,25.8-39.158C220.31,163.168,213.014,156.109,203.984,152.356Zm-31.2-12.254a10.456,10.456,0,1,1-6.425,13.318A10.454,10.454,0,0,1,172.784,140.1Zm-.328,44.274a11.562,11.562,0,0,0-1-7.713l25.118-8.769a11.535,11.535,0,0,0,4.017,6.66A86.253,86.253,0,0,1,172.456,184.376Zm-11.593-63.358,9.374-3.273q.89,2.463,1.778,4.926l-9.479,3.309Q161.7,123.5,160.864,121.018Zm-4.026-11.939,9.124-3.185c.592,1.638,1.188,3.287,1.778,4.926l-9.228,3.221C157.953,112.39,157.394,110.731,156.837,109.079Zm-2.014-5.968,9-3.141c.592,1.638,1.188,3.287,1.778,4.926l-9.1,3.178C155.941,106.421,155.38,104.761,154.824,103.11Zm9.961,29.524,9.617-3.357c.534,1.479,1.067,2.953,1.6,4.434l-9.709,3.39C165.786,135.608,165.286,134.124,164.784,132.634ZM150.535,63.227c.738,2.035,1.475,4.084,2.214,6.121l-8.315,2.9c-.69-2.054-1.388-4.117-2.077-6.169Zm12.343,63.76,9.5-3.316q.832,2.305,1.662,4.606l-9.6,3.35Q163.661,129.3,162.878,126.986ZM158.85,115.05l9.248-3.228q.889,2.46,1.778,4.926l-9.354,3.266C159.967,118.359,159.408,116.7,158.85,115.05ZM144.771,73.258l8.339-2.911,1.78,4.925-8.448,2.949Zm21.858,64.848,9.731-3.4c.3.835.6,1.666.9,2.5a11.409,11.409,0,0,0-9.783,3.415C167.195,139.785,166.914,138.947,166.629,138.106ZM152.814,97.14l8.867-3.1,1.78,4.925-8.977,3.134C153.925,100.445,153.372,98.8,152.814,97.14Zm-6.03-17.911,8.47-2.957q.892,2.459,1.78,4.925l-8.578,2.995Q147.616,81.71,146.783,79.229Zm2.008,5.97,8.6-3q.89,2.463,1.78,4.925l-8.712,3.042Q149.628,87.68,148.791,85.2Zm2.012,5.969,8.734-3.049c.594,1.642,1.188,3.28,1.78,4.925l-8.845,3.088C151.915,94.475,151.359,92.826,150.8,91.169ZM129.393,41.015a23.53,23.53,0,0,1,15.686-5.476c.9,6.41,2.166,13.757,4.933,20.155a7.434,7.434,0,0,0-.071,5.83l-8.187,2.858a7.411,7.411,0,0,0-3.68-4.521h0C136.261,53.13,132.675,46.594,129.393,41.015Zm17.456-1.553c-.163-1.007-.245-1.836.6-1.976a1.88,1.88,0,0,1,.605,3.654C147.207,41.28,147.019,40.471,146.848,39.461Zm1.277,6.28c-.266-1.021-.429-1.86.427-2.084a1.937,1.937,0,0,1,.965,3.693C148.66,47.575,148.389,46.763,148.125,45.741Zm4.108,5.568a1.8,1.8,0,0,1-.9,2.365c-.854.3-1.189-.505-1.541-1.514s-.591-1.848.263-2.146A1.806,1.806,0,0,1,152.233,51.309Zm-23.944-4.921a1.724,1.724,0,0,1,.46-2.375c.751-.42,1.2.283,1.7,1.173s.854,1.646.1,2.064A1.725,1.725,0,0,1,128.289,46.388Zm3.441,3.141c.809-.357,1.2.4,1.631,1.366s.72,1.767-.088,2.126a1.937,1.937,0,0,1-1.543-3.491Zm2.776,5.916c.852-.3,1.189.505,1.542,1.516s.588,1.847-.264,2.144a1.968,1.968,0,0,1-1.278-3.66Z" transform="translate(-3.677 -3.5)"/>
  </g>
  <g>
    <path class="cls-2" d="M36.069,138.714l21.917,8.853L40.273,133.444l3.167-3.972L69.8,150.488l-3.4,4.266L45.16,146.761l16.877,13.458-3.167,3.972L32.513,143.175Z" transform="translate(-3.677 -3.5)"/>
    <path class="cls-2" d="M54.378,117.87a8.054,8.054,0,0,1,11.4.3l12.65,13.343A8.051,8.051,0,1,1,66.743,142.6l-12.65-13.343a8.054,8.054,0,0,1,.285-11.383Zm7.484,3.87a2.891,2.891,0,0,0-4.1-.11,2.842,2.842,0,0,0-.919,2.038,2.776,2.776,0,0,0,.791,2.085l12.688,13.381a2.77,2.77,0,0,0,2.039.9,2.847,2.847,0,0,0,2.085-.81,2.89,2.89,0,0,0,.109-4.1Z" transform="translate(-3.677 -3.5)"/>
    <path class="cls-2" d="M72.987,102.963q3.442-2.489,6.425-1.757a8.5,8.5,0,0,1,4.754,3.6l2.866,3.964a7.869,7.869,0,0,1,1.342,6.493l11.663,9.714-4.454,3.218-9.928-8.479c-.117.083-.24.173-.371.268L82.91,121.7l7.432,10.284-4.118,2.976-19.729-27.3Zm7.217,4.8q-1.715-2.375-4.069-.675l-2.483,1.794,6.314,8.738,2.483-1.8a2.776,2.776,0,0,0,1.163-1.9,2.848,2.848,0,0,0-.526-2.174Z" transform="translate(-3.677 -3.5)"/>
    <path class="cls-2" d="M107.05,120.837l-4.51,2.339L87.023,93.249,93.5,89.893l15.35,19.318-7.111-23.588,6.218-3.225,15.517,29.926-4.51,2.338-9.751-18.8,5.837,20.834-3.627,1.88L97.325,102.08Z" transform="translate(-3.677 -3.5)"/>
    <path class="cls-2" d="M129.861,101.845l1.426,7.709-4.985,1.769-5.87-33.657,6.585-2.339L143.6,105.183l-5.035,1.787-3.709-6.9ZM126.28,83.776l2.668,13.144,3.546-1.259Z" transform="translate(-3.677 -3.5)"/>
    <path class="cls-2" d="M181.2,64.4l.467,5.086-7.169,24.276,9.316-.854.462,5.033L169.5,99.292l-.464-5.064,7.2-24.275-9.34.883-.466-5.086Z" transform="translate(-3.677 -3.5)"/>
    <path class="cls-2" d="M187.218,97.863l1.647-33.669,14.445.706-.249,5.1-9.371-.458-.448,9.183,6.846.334-.249,5.1-6.847-.334-.449,9.181,9.37.458-.249,5.1Z" transform="translate(-3.677 -3.5)"/>
    <path class="cls-2" d="M216.331,66.9l1.922,23.559,4.675-22.167,4.971,1.048-6.958,32.984L215.6,101.2l-2.384-22.563-4.455,21.121L203.792,98.7l6.958-32.983Z" transform="translate(-3.677 -3.5)"/>
    <path class="cls-2" d="M235.761,77.441l-5.06-1.893,1.79-4.784,14.854,5.559-1.79,4.783-5.035-1.883L230.5,105.985l-4.758-1.781Z" transform="translate(-3.677 -3.5)"/>
    <path class="cls-2" d="M236.042,108.16l16.166-29.581,12.69,6.936L262.448,90l-8.232-4.5-4.409,8.067,6.016,3.288-2.449,4.481-6.016-3.287-4.408,8.067,8.231,4.5-2.449,4.482Z" transform="translate(-3.677 -3.5)"/>
    <path class="cls-2" d="M275.639,92.923l-8.459,22.071,13.8-17.963,4.028,3.1-20.541,26.729-4.326-3.325,7.611-21.374L254.6,119.271l-4.028-3.1,20.541-26.728Z" transform="translate(-3.677 -3.5)"/>
    <path class="cls-2" d="M297.021,111.377a8.054,8.054,0,0,1-.315,11.4L283.35,135.414a8.051,8.051,0,1,1-11.066-11.7l13.357-12.637a8.051,8.051,0,0,1,11.381.3Zm-3.876,7.479a2.892,2.892,0,0,0,.113-4.1,2.846,2.846,0,0,0-2.038-.922,2.78,2.78,0,0,0-2.085.789l-13.4,12.674a2.776,2.776,0,0,0-.9,2.039,2.837,2.837,0,0,0,.808,2.084,2.889,2.889,0,0,0,4.1.114Z" transform="translate(-3.677 -3.5)"/>
  </g>
</svg>
