<svg xmlns="http://www.w3.org/2000/svg" viewBox="0 0 345.476 265.935">
  <defs>
    <style>
      .cls-1 {
        fill: #f4ecdf;
      }

      .cls-2 {
        fill: #010101;
      }

      .cls-3 {
        fill: #231f20;
      }
    </style>
  </defs>
  <title>Norma Memory UPDATE</title>
  <g id="Wings">
    <path class="cls-1" d="M321.367,253.3c-3.615-.592-7.929-12.232.462-14.47,9.6-2.561,18.822,5.438,5.6,20.026s-25.176-.993-28.354-7.441-11.6-32.2,44.673-83.682S396.85,105,396.85,105s-1.172,39.031-19.186,59.305-40.2,36.907-43.635,38.6,16.1-4.223,43.06-24.637,44.618-57.515,44.618-57.515,4.153,40.2-35.254,71.974a225.116,225.116,0,0,1-46.244,28.494s17.791,1.926,47.984-16.756S431.955,160.8,431.955,160.8s-3.426,33.5-35.937,58.069C379.239,231.553,353.387,240,353.387,240s1.169,3.588,37.817-11.631S439.153,201.4,439.153,201.4s-2.068,20.763-42.988,41.8c-31.966,16.433-46.445,13.683-46.445,13.683s15.777,5.04,29.5,2.07,48.261-14.772,48.261-14.772S417.095,263.55,379.9,273.814a73.189,73.189,0,0,1-38.466-.026s7.493,5.1,31.549,11.032c10.269,2.533,37.353-5.122,37.353-5.122s-9.983,14.416-51.7,17.419c-18.965,1.365-27.2-6.056-27.2-6.056a47.185,47.185,0,0,0,22.8,18.331c10.042,3.873,25.818,4.223,25.818,4.223s-22.267,12.274-37.934,6.832c-19.773-6.868-32.238-23.985-25.331-33.087,3.255-4.29,10.559-15.175,15.545-21.431s12.662-16.686,3.587-28.354c-6.787-8.726-17.705-6.164-21.312-2.786-2.671,2.5-7.3,12.146-1.054,18.085C317.949,257.043,321.367,253.3,321.367,253.3Z" transform="translate(-93.677 -91.926)"/>
    <path class="cls-1" d="M217.288,285.643c3.5-1.064,6.243-13.173-2.37-14.282-9.859-1.27-17.938,7.877-2.9,20.591s24.824-4.311,27.122-11.122,7.246-33.453-55.339-77.045-60.926-55.166-60.926-55.166,6.319,38.534,26.855,56.25,44.722,31.272,48.353,32.5-16.512-2.059-45.938-18.731-51.827-51.115-51.827-51.115,1.2,40.4,44.455,66.684a225.116,225.116,0,0,0,49.6,22.134s-17.381,4.26-49.778-10.269-49.147-37.5-49.147-37.5,7.822,32.75,43.3,52.811c18.308,10.354,45.049,15.306,45.049,15.306s-.685,3.711-39.022-6.532-51.091-20.389-51.091-20.389,4.794,20.308,48.134,35.753c33.858,12.065,47.846,7.425,47.846,7.425s-14.973,7.081-28.972,5.951-49.79-8.265-49.79-8.265,12.86,17.822,51.081,23.082A73.189,73.189,0,0,0,200.1,308.6s-6.754,6.043-29.814,15.1c-9.844,3.868-37.7-.141-37.7-.141s11.8,12.971,53.552,10.434c18.979-1.153,26.158-9.6,26.158-9.6a47.185,47.185,0,0,1-20.182,21.184c-9.442,5.166-25.034,7.6-25.034,7.6s23.694,9.224,38.5,1.76c18.692-9.421,28.786-28.035,20.737-36.144-3.794-3.822-12.472-13.646-18.241-19.189s-14.756-14.867-7.3-27.631c5.574-9.546,16.735-8.449,20.757-5.578,2.978,2.126,8.846,11.074,3.434,17.787C221.17,288.9,217.288,285.643,217.288,285.643Z" transform="translate(-93.677 -91.926)"/>
  </g>
  <g id="Layer_2_copy" data-name="Layer 2 copy">
    <g>
      <path d="M123.211,208.129c-.653.821-1.025,1.851-1.595,2.615a2.154,2.154,0,0,1-.431.471,1.69,1.69,0,0,1-.393.421,3.06,3.06,0,0,1-.52.325c-.108.038-.114.152-.26.242-.184.14-.412.287-.7.509a.187.187,0,0,0-.216.076,4.292,4.292,0,0,1-1,.327,2.347,2.347,0,0,1-.324-.044c-.108.038-.2.166-.311.2-.045.006-.121-.05-.165-.044a1.7,1.7,0,0,0-.476,0c-.229-.013-.463.089-.6.064-.07-.013-.178-.133-.318-.157-.051-.038-.115-.006-.235-.057a2.386,2.386,0,0,1-.5-.29c-.286-.095-.591-.005-.865-.17-.445-.253-.719-.735-1.158-.944a6.9,6.9,0,0,0-.683-1.262,1.036,1.036,0,0,0-.167-.839,7.013,7.013,0,0,0-.028-1.131l.05-.28a.446.446,0,0,0-.064-.127c.013-.07.139-.134.133-.178.013-.07-.052-.2-.045-.311a5.16,5.16,0,0,1,.175-1.137,2.4,2.4,0,0,1,.113-.629c.094-.286.316-.477.468-.84.051-.121.031-.254.07-.3a1.2,1.2,0,0,1,.36-.643c.368-.439.882-.491,1.262-1,.4-.058.793-.32,1.149-.371.394-.1,1.085-.339,1.467-.054.172.247.445.253.585.437.185.337.324.2.407.463a6.269,6.269,0,0,1,.047,1.105c-.012.229-.31.522-.424.674-.19.255-.482.275-.634.478a2.7,2.7,0,0,1-1.177-.6c-.458-.342.12-.426-.23-.807a1.5,1.5,0,0,1,.125-.7c-.534-.24-.869.421-1.376.835a1.007,1.007,0,0,0-.513.688,1.183,1.183,0,0,1-.082.375c-.108.2-.311.363-.4.534-.284.541-.117,1.379-.294,1.881a6.1,6.1,0,0,1,.009,1.315c.013.089.089.146.128.254-.025.14-.1.242-.044.324-.013.07.14.184.153.273.032.063,0,.159-.012.229.306.228.306.546.434.8a2.954,2.954,0,0,0,.98.652c.267.12.471.272.591.323.312.114.407-.014.654-.028a9.922,9.922,0,0,1,1.1.227c.2-.166.457-.135.743-.2.127-.064.114-.153.2-.166.343-.14.6-.224.946-.365.114-.152.222-.191.3-.293a5.7,5.7,0,0,0,1-1.076,2.8,2.8,0,0,0,.437-.585c.019-.025.006-.114.063-.19a2.713,2.713,0,0,0,.544-1.1,3.38,3.38,0,0,0,.233-.579c.164-.432.138-.928.314-1.43a18.029,18.029,0,0,0-.144-1.931,1.487,1.487,0,0,1-.045-.311c.013-.07.082-.216.025-.3-.064-.285-.154-.59-.237-.85a5.728,5.728,0,0,0-.263-1.187c-.07-.171-.16-.476-.243-.736-.2-.47-.485-1-.709-1.6a1.442,1.442,0,0,0-.077-.533,4.167,4.167,0,0,0-.287-.412c-.045-.152-.128-.412-.167-.52-.159-.317-.37-.672-.542-1.079-.364-.628-.759-1.319-1.173-1.985a1.391,1.391,0,0,1-.351-.539,2,2,0,0,0-.2-.469,9.654,9.654,0,0,0-.719-.735c-.064-.127-.064-.285-.147-.387.025-.14-.108-.121-.1-.235a4.089,4.089,0,0,0-.4-.577,12.137,12.137,0,0,1-.872-1.008c-.14-.184-.275-.482-.44-.685-.057-.083-.178-.133-.312-.272-.057-.083-.108-.279-.191-.381-.051-.038-.2-.107-.229-.171-.025-.019.051-.121-.026-.178a6.8,6.8,0,0,1-.592-.64,9.467,9.467,0,0,1-.816-1.084,24.958,24.958,0,0,1-1.6-1.946,8.185,8.185,0,0,0-.924-1.364c-.7-.919-1.249-1.883-1.906-2.651-.38.351-.271.947-.416,1.513-.018.184-.132.337-.139.451-.044.165-.082.375-.145.566a4.613,4.613,0,0,0,.008.521,11.259,11.259,0,0,0-.341,1.094c-.069.3-.157.635-.258,1.036a8.642,8.642,0,0,0-.169,1.023c-.144.725.06,1.353-.046,2.026a2.346,2.346,0,0,1,.237,1.01c.184.018.128.254.191.381.42.552,1.457.969,1.192,1.643a1.95,1.95,0,0,1-1.176-.442c-.076.1-.318-.317-.42-.393-.4.058-.649-.4-.841-.785a5.583,5.583,0,0,1-.25-1.1,3.679,3.679,0,0,1-.1-1.187,11.159,11.159,0,0,1,.275-1.7c.063-.35.126-.7.182-1.093a14.962,14.962,0,0,1,.623-2.269c.037-.368.068-.782.112-1.105.069-.146.19-.255.2-.324a8.515,8.515,0,0,1,.15-.839,11.607,11.607,0,0,0,.239-1.169c.032-.1.006-.115.019-.185-.019-.133.082-.375.055-.552a5.242,5.242,0,0,0-.262-.711,1.867,1.867,0,0,1-.166-.361,1.564,1.564,0,0,1-.211-.514c.013-.07.051-.121.018-.184-.057-.083-.172-.248-.255-.349-.013-.089.076-.26.018-.343-.019-.133-.121-.209-.108-.279a1.988,1.988,0,0,1-.021-.768c.006-.115-.089-.146-.146-.229-.007-.045.031-.1.044-.165-.039-.425-.053-.991-.061-1.511,0-.159-.045-.311-.033-.381-.007-.044.121-.108.114-.152.051-.121-.007-.2.031-.254a3.848,3.848,0,0,1,.754-.9c.35.063.686-.122.991.106.509.38.187,1.13.366,1.74.038.108.255.349.3.5.077.057,0,.159.026.178a1.219,1.219,0,0,1,.21.355c.013.089.058.241.071.33a4.672,4.672,0,0,1,.619,1.294,7.113,7.113,0,0,1,.8,1c-.013.07-.018.184.032.222.076.057.172.088.178.133.057.083.032.222.09.3.134.139.286.253.369.355.179.291.16.635.466,1.021.032.063.082.1.114.165s.121.209.217.4a8.2,8.2,0,0,1,1.16,1.738,4.572,4.572,0,0,1,.86,1.078c.172.247.351.38.465.545a14.765,14.765,0,0,1,1.619,2.238c.083.1.07.171.172.247a6.563,6.563,0,0,0,.44.526c.313.431.631.907,1.02,1.4a2.072,2.072,0,0,1,.414.507c.051.038.216.241.293.3.032.063-.038.21.02.292a2.739,2.739,0,0,1,.458.5,12.749,12.749,0,0,1,.574,1.142,1.924,1.924,0,0,1,.58.869,2.291,2.291,0,0,1,.358.9c.21.2.261.393.49.564-.126.381.212.673.352,1.015.057.083.058.241.115.324.007.2.217.4.313.59a1.373,1.373,0,0,1,.122.368,1.923,1.923,0,0,1,.287.571c.089.146.058.241.1.349-.006.115.1.235.134.3a4.853,4.853,0,0,0,.263.869c.051.2-.025.458.1.667l.154.59c.07.171.058.4.154.591-.006.114.1.19.115.323.057.083.026.178.038.267.051.2.109.438.16.635-.006.115-.1.242-.031.413-.006.114.1.19.064.285a.98.98,0,0,1-.012.388c.033.381.1.826.149,1.34a3.378,3.378,0,0,1-.005.432c0,.318.167.679.18.927a3.666,3.666,0,0,0-.17.547,5.227,5.227,0,0,1-.219,1.62A4.19,4.19,0,0,0,123.211,208.129Z" transform="translate(-93.677 -91.926)"/>
      <path d="M140.561,176.9a2.224,2.224,0,0,1,0-.517l.352-2.335a1.489,1.489,0,0,1-.016-.314,4.83,4.83,0,0,1,.107-.973,3.947,3.947,0,0,0,.113-1.311c.179-.009.11-1.355.11-1.355-.024-.021.043-.047.111-.028l0-.045.1.13a1.09,1.09,0,0,1,.219.326l.144.172-.31,2.715c-.027.361.067.874.038,1.19-.06.588-.249.845-.268,1.341l-.1.725,0,.045c-.005.338.1.175.1.692a7.153,7.153,0,0,0,.015,1.6,19.415,19.415,0,0,1-.1,2.906,7.342,7.342,0,0,1-.17,1.516c-.033.227.006.989-.082,1.466a4.853,4.853,0,0,1-.843,1.977c-.452.833-1.708.9-3.147-.4a3.377,3.377,0,0,1-.674-.865c-.1-.13-.21-.146-.307-.276a2.774,2.774,0,0,1-.129-.331,2.823,2.823,0,0,1-.3-.569,1.758,1.758,0,0,1-.063-.356c-.052-.133-.144-.172-.2-.305-.442-1.169-.782-2.546-1.211-3.873-.028-.111.012-.2-.016-.314s-.17-.239-.2-.35l-.313-.838c-.153-.352-.171-.711-.346-1.039l-.231-.55c-.073-.108-.129-.33-.4-.272l-.192.212c-.936,1.038-.967,2.636-1.121,3.566.012.224-.362.4-.188,1.157a2.7,2.7,0,0,1-.242.98,6.994,6.994,0,0,1-.191,1.539c-.038.137.131.8-.01.675-.079.656.2.822-.056,1.105a27.984,27.984,0,0,0-.011,3.284c.047.043.187,1.452.3,2.279.112.871.484,1.977-.112,2.637-.426.472-.952.724-1.353.362-1.462-1.319-1.26-2.634-2.142-4.5a8.252,8.252,0,0,0-.445-1.214c-.7-1.4-.087-1.7-1.077-3.453-.3-.524-.967-.872-1.133-.594a5.421,5.421,0,0,0-.522,2.523,3.574,3.574,0,0,1,.1,1.547l-.012.2.056.222a.4.4,0,0,1-.017.113,2.953,2.953,0,0,1-.034,1.081l-.22,1.855a3.789,3.789,0,0,1,.037.718,9.713,9.713,0,0,1-.218,1l-.172,1.471-.551,3.651c.024.022-.019.069-.019.069a1.181,1.181,0,0,1-.194.167l-.362.4a1.315,1.315,0,0,0,.069-.408c.089-.137.555-3.841.625-4.824l.226-1.294.071-.364a6.558,6.558,0,0,1-.027-.966c.024-.406-.045-.425.031-.7a3.93,3.93,0,0,0,.113-1.31c.045,0,.085-.094.1-.252a10.365,10.365,0,0,1-.038-1.617,13.843,13.843,0,0,1,.188-2.911,1.808,1.808,0,0,1,.421-.989,2.778,2.778,0,0,1,.766-.421c.593-.278,1.892.51,2.459,1.021a10.837,10.837,0,0,1,2.163,3.15,4.837,4.837,0,0,0,.366-2.065c.21-1.608.275-2.961.455-4.724.277-.307.126-.614.112-.883.7-.778-.286-1.627,1.161-3.231a5.54,5.54,0,0,1,.6-1c.468-.519,1.105-.372,1.695.16a7.208,7.208,0,0,1,.785.837c.071.064.278.166.444.315a6.329,6.329,0,0,1,1.162,2.032c.1.22.412.586.514.806.254.571.45.876.673,1.293a18.381,18.381,0,0,0,.629,2.622,7.645,7.645,0,0,0,1.142,2.528c.191.215.406.024.491-.071a2.184,2.184,0,0,0,.493-1.352c.053-.3.067-.881.094-1.242s.214-1.518.215-1.946a7.034,7.034,0,0,0,.005-2.091c-.031-.156.056-1.105.025-1.261-.066-.4-.014-.7-.072-.963a.1.1,0,0,1-.026-.066A.945.945,0,0,1,140.561,176.9Z" transform="translate(-93.677 -91.926)"/>
      <path d="M161.946,169.143c.1-.076.19-.223.266-.281a.979.979,0,0,1,.629-.116c.735-.4,2.167-1.558,2.822-1.376.127-.1.139-.185.266-.28a2.785,2.785,0,0,1,.989-.429c.38-.287.582-.6.937-.867,1.09-.824,2.115-1.678,3.408-2.655a2.257,2.257,0,0,0,.394-.217,6.676,6.676,0,0,1,.771-.981c.474-.637,1.215-1.078,1.613-1.816a2.967,2.967,0,0,1,.556-.739c.442-.891.86-1.286.928-1.776.567-1.146.666-2.175,1.038-2.894a10.974,10.974,0,0,0,.344-1.653,29.053,29.053,0,0,0,.788-3.541.138.138,0,0,1,.057-.083c.051-.038.121-.051.235.1.46.608-.195,2.377-.244,2.891-.144.388.014.388-.257.872a14.009,14.009,0,0,1-.261,1.551,8.478,8.478,0,0,0-.359.948c.026.14-.806,2.2-.806,2.2.026-.019-.864,1.648-1.161,2.151-.385.649-1.695,2.077-2.485,3.033-1.622,1.225-3.066,2.476-4.13,3.28a22.843,22.843,0,0,1-2.7,1.642,8.813,8.813,0,0,0-1.262.6c-.126.1-.209.2-.336.293-.153-.044-.2-.165-.584.123-.127.1-.234.217-.361.312a.9.9,0,0,0-.635.161c-.126.1-.215.242-.317.319a4.737,4.737,0,0,0-1.839.674.512.512,0,0,0-.171.249,2.546,2.546,0,0,0-1.568.507c-.3.23-.416.713-.688,1.038-.481.364-1.241,1.256-2.432,2.156a3.083,3.083,0,0,0-1.16.519c-.076.057-.133.14-.209.2a.5.5,0,0,1-.514.11,1.419,1.419,0,0,1-.26.236,1.235,1.235,0,0,1-1.473.158c-.18-.5.047-.832.453-1.139.3-.23.7-.447,1.026-.7.2-.153.443-.414.62-.548.887-.67,2.042-.986,2.853-1.6a2.281,2.281,0,0,0,.734-.873c-.249-.329.471-1.431.6-1.685a3.964,3.964,0,0,1,.424-2.231c-.279-1.422.193-2.853-.2-4.268a5.575,5.575,0,0,0-.023-1.3c.011-.407-.2-1-.247-1.486a9.15,9.15,0,0,0-.788-3.625,3.822,3.822,0,0,0-1.059.6c-.532.4-1.057.918-1.64,1.359-.254.191-.526.358-.8.524a6.293,6.293,0,0,0-1.446.615c-.228.172-.488.408-.716.581-1.269.481-2.552.416-3.287.971a11.856,11.856,0,0,0-1.911.21,7.4,7.4,0,0,0-2.006.242c-1.849-.235-3.584-.317-5.285-1.62l-.1-.127c-1.551-2.053-.271-4.89,1.072-5.9,1.115-.843,2.334-.968,3.875-1.615.832.048,1.606-.3,2.536.195a4.555,4.555,0,0,1,3.334,1.62,1.5,1.5,0,0,1-.221,2.237c-.2-.006-.7.333-1.145-.25-.574-.76-.246-1.327.286-1.888-.886-.8-1.554-1.214-3.728-1.4-1.294.341-2.977.538-4.244,1.5a4.316,4.316,0,0,0-1.5,2.966,1.81,1.81,0,0,0-.009,1.042c.057.076.121.107.2.209.057.076.07.146.128.222.919,1.216,2.38,1.147,5.037,1.767.234-.058.52-.154.755-.212a2.243,2.243,0,0,0,.667.093.118.118,0,0,1,.038-.108l.089.012a22.167,22.167,0,0,0,4.716-.976,3.863,3.863,0,0,0,.545-.332c.178-.134.336-.293.539-.446a5.219,5.219,0,0,1,1.738-.756c.785-.594,1.768-1.3,2.553-1.89.988-.747.739-1.235.648-1.724a4.116,4.116,0,0,1-.328-1.066c-.53-2.7-1.157-5.535-1.535-8.2-.114-1.785-.828-4.152.022-6.346a2.58,2.58,0,0,1,.689-1.038c1.216-.919,1.835-.312,2.566-.028.9.353,1.469.363,2.158,1.276a8.316,8.316,0,0,1,1.877,6.066.389.389,0,0,1,.146.088c.038.051.038.051-.215.242a6.045,6.045,0,0,1,.03,1.251c-.056.242-.153,1.589-.172,1.563l.026-.019a2.115,2.115,0,0,1-.36.63.031.031,0,0,1,.006-.045c-.106.439-.086.782-.149,1.068-.075.216-.279.37-.341.5a2.883,2.883,0,0,0-.087.623,6.951,6.951,0,0,1-1.333,2.082c-.408,1.462,1.135,3.083.624,4.146.965,1.54.712,3.682.941,5.619a3.662,3.662,0,0,1-.3,2.135c.218.552-.112.483-.093.668-.025.178.232.78-.123,1.049-.253.191-.094.191,0,.476-.177.134-.447,1.094-1.046,2.3-.1.235-.01.565-.289.776C160.6,170.044,161.337,169.126,161.946,169.143Zm-.941-19.79c.159-1.792.907-3.91.624-4.811a5.133,5.133,0,0,0-.735-3.027,5.824,5.824,0,0,0-.878-2c-.919-1.217-1.643-1.068-2.731-1.718a2.056,2.056,0,0,0-.52.313,2.656,2.656,0,0,0-.027,1.175c.065.349-.056.559-.016.769a7.156,7.156,0,0,0,.727,2.6,18.8,18.8,0,0,0,1.179,4.722,10.547,10.547,0,0,0,.473,2.628c-.177.134.034.572.053.6l.115.152c.076.1,0,.794.329,1.225l.1-.076c.583-.44.706-1.489.921-1.89C160.683,149.716,160.886,149.562,161.006,149.353Z" transform="translate(-93.677 -91.926)"/>
      <path d="M182.3,143.37s-.573.78-.731.762c-.324.265-.763.707-.768.637-.429.585-.46.345-.763.707a3.236,3.236,0,0,0-.681.659,8.278,8.278,0,0,0-.857.8c-.78.68-.5.219-1.288.943.258.438.388.472.651.981.121.518.461.908.4,1.425a3.072,3.072,0,0,1,.084,1.02c.047.267.018.468.053.779a7.273,7.273,0,0,0-.094.9c-.079.3-.169.652-.241.843a3.734,3.734,0,0,1-.1,1.089c-.117.364-.222.5-.384,1.038a7.393,7.393,0,0,0-.493.917c-.045.174-.3.619-.394.9-.193.3-.362.324-.555.622a2.246,2.246,0,0,1-.446.558,5.034,5.034,0,0,1-1.882,1.624,8.019,8.019,0,0,1-2.281.384,4.546,4.546,0,0,1-1.157-.461,5.986,5.986,0,0,1-1.21-.615,3.865,3.865,0,0,1-.965-1.2,14.97,14.97,0,0,1-1.053-2.477c.135-1.149.041-2.31.142-2.7a7.248,7.248,0,0,1,1.051-2.536c.155-.239.359-.58.5-.846a3.594,3.594,0,0,1,1.285-1.2c.328-.194.8-.582,1.24-.4.243.225-.211.456-.322.706-.161.353-.644.785-.74,1.247a7.935,7.935,0,0,1-.351.907c-.166.282,0,0-.058.4a1.52,1.52,0,0,1-.281,1.087c-.029.2-.078.931-.08,1.116-.048.544.063.295.063.921a6.1,6.1,0,0,0,.145,1.5c.026.169.121-.108.248.3a3.987,3.987,0,0,0,1.273,2.163c.518.69,1.526.65,2.234.6a5.129,5.129,0,0,0,1.9-1.6,10.323,10.323,0,0,0,1.032-1.566,6.381,6.381,0,0,1,.465-.9,8.139,8.139,0,0,1,.323-.891,2.57,2.57,0,0,0,.159-.794c.018-.158-.068-.365.021-.528,0,0,.092-.533.116-.806s-.144-.432-.141-.8c.029-.2-.18-.558-.01-.768-.429-.853.072-1.443-1.014-1.91-.4.2-.6.425-1.068.628a15.334,15.334,0,0,1-2.024.381,1.363,1.363,0,0,1-1.265-.583c.04-.872.236-.913.709-1.487a2.7,2.7,0,0,1,1.647-.9c.257,0,.893.138,1.062.112.4-.013.715.464,1.076.325.388-.155,0,.256.76-.337.729-.577,1.071-1,1.624-1.436.378-.3,1.174-.949,1.712-1.413a12.43,12.43,0,0,0,1.947-2.142c-.321-.733-.065-.736.236-1.54,1.049-1.1,2.124.039,2.93,1.408a6.523,6.523,0,0,1,.526,1.018,15.533,15.533,0,0,0,.6,1.966c.321,1.359.824,3.091,1.026,4.373a4.553,4.553,0,0,0,.386,1.469c.348.09.485.009.705-.3a3.329,3.329,0,0,0,.7-1.188.685.685,0,0,0,.319-.335.562.562,0,0,1-.047-.267,1.787,1.787,0,0,0,.43-.585,2.72,2.72,0,0,1,.106-.321,5.481,5.481,0,0,0,.714-1.416,11.674,11.674,0,0,0,.735-1.945c.172-1.023.4-1.893.662-3.007a.631.631,0,0,1-.011-.583c-.081-.137,0-.186.138-.266-.157-.829.115-1.432-.143-1.87a10.259,10.259,0,0,0-1.142-.876c-.376-.074-1.023-.172-.888-.694.035-.316.446-.558.9-.532.229.013-.06-.039.794.159a6.067,6.067,0,0,1,1.382.845,6.518,6.518,0,0,1,1.561,1.588,3.048,3.048,0,0,0,1.476,1.38,1.985,1.985,0,0,0,1.4-.01,8.574,8.574,0,0,0,.794-.468c-.014-.212.115.006.6-.866a13.424,13.424,0,0,1,.67-1.243c.2-.227.164-.723.264-.929a4.83,4.83,0,0,1,.394-.9,3.3,3.3,0,0,0,.544-1.2c.174.045.528-1.233.528-1.233.034-.131.364.117.3.82,0,0-.177.326-.416.8-.216.385-.405.939-.643,1.411-.134.336-.22.94-.381,1.293a12.863,12.863,0,0,0-.675,1.172,6.663,6.663,0,0,1-.619,1.139,3.216,3.216,0,0,1-.73.577,2.657,2.657,0,0,1-1.937.4,2.567,2.567,0,0,1-1.692-.995c-.535-.533-1.471-1.935-1.6-1.9.532.9.366.559.3,1.517a6.33,6.33,0,0,0-.136,1.334,3.185,3.185,0,0,0-.37,1.25,7.047,7.047,0,0,1-.612,2.093,12.573,12.573,0,0,1-.964,2.558,10.03,10.03,0,0,1-.82,1.737,11.09,11.09,0,0,0-.7,1.629c-.739.435-.794,1.094-1.3,1.243-.383.225-.447.116-.784-.018-.109.065-.154.238-.219.129-.137.08-.25-.111-.5-.293a2.588,2.588,0,0,1-2.2-1.359,4.849,4.849,0,0,1-.568-1.214.6.6,0,0,1-.012-.583,10.5,10.5,0,0,1-1.229-2.963l-.123-.96-.073-.437c-.068-.366-.492-1.148-.486-1.263Zm-6.6,4.626a1.756,1.756,0,0,0-1.993-.191c-1.424.838-1.472,1.382-.807,1.322A4.846,4.846,0,0,0,175.693,148Z" transform="translate(-93.677 -91.926)"/>
      <path d="M229.555,127.916a2.208,2.208,0,0,1,.235-.46l1.389-1.909a1.487,1.487,0,0,1,.13-.286,4.844,4.844,0,0,1,.544-.813,3.941,3.941,0,0,0,.7-1.11c.163.074.723-1.152.723-1.152-.011-.029.059-.022.112.026l.019-.041.026.16a1.091,1.091,0,0,1,.044.39l.048.219L232,125.205c-.19.308-.343.806-.514,1.073-.324.494-.61.635-.856,1.066l-.421.6-.019.041c-.16.3.007.2-.227.661a7.1,7.1,0,0,0-.723,1.423,19.363,19.363,0,0,1-1.427,2.534,7.358,7.358,0,0,1-.849,1.267c-.134.186-.451.88-.748,1.263a4.856,4.856,0,0,1-1.66,1.366c-.785.531-1.929.009-2.607-1.806a3.37,3.37,0,0,1-.2-1.078c-.026-.16-.119-.227-.145-.387a4.517,4.517,0,0,0,.035-1,1.741,1.741,0,0,1,.108-.345c.015-.141-.048-.219-.033-.361.147-1.241.479-2.62.711-4,.026-.111.1-.174.13-.286s-.04-.29-.014-.4l.109-.889c.026-.383.176-.71.172-1.081l.049-.595c-.015-.13.038-.353-.226-.424l-.267.1c-1.309.489-2.073,1.893-2.639,2.647-.093.2-.506.189-.7.94a2.7,2.7,0,0,1-.666.757,7.006,7.006,0,0,1-.879,1.278c-.1.1-.254.773-.32.595-.372.546-.2.821-.559.955a27.889,27.889,0,0,0-1.524,2.909c.022.059-.5,1.375-.787,2.159-.3.825-.482,1.977-1.315,2.288-.6.222-1.179.2-1.368-.3-.689-1.844.1-2.918.173-4.981a8.288,8.288,0,0,0,.165-1.282c.024-1.569.708-1.553.636-3.561-.021-.6-.456-1.22-.731-1.049-.826.512-.866,1.35-1.2,2.2-.023.5-.826,1.194-.625.617a6.822,6.822,0,0,1,.967-2.833c.138-.085.205-.45.83-.683a2.778,2.778,0,0,1,.874-.022c.654.027,1.444,1.325,1.711,2.039a10.824,10.824,0,0,1,.467,3.792c.67-.386.894-1.148,1.277-1.664.927-1.33,1.608-2.5,2.581-3.982.387-.145.394-.487.507-.732.982-.367.5-1.576,2.519-2.332a5.575,5.575,0,0,1,.993-.608c.654-.245,1.152.179,1.43.923a7.2,7.2,0,0,1,.311,1.1c.033.089.171.275.249.483a6.313,6.313,0,0,1,.094,2.339c-.011.242.1.71.084.951-.038.624,0,.985,0,1.457a18.359,18.359,0,0,0-.65,2.616,7.65,7.65,0,0,0-.152,2.769c.07.279.349.209.468.164.506-.189.677-.457,1.061-.972.183-.238.466-.751.655-1.059s.89-1.248,1.087-1.627a7.015,7.015,0,0,0,.969-1.854c.045-.152.559-.955.6-1.107.127-.386.309-.624.38-.888a.1.1,0,0,1,.008-.071A.943.943,0,0,1,229.555,127.916Z" transform="translate(-93.677 -91.926)"/>
      <path d="M239.321,119.431c-.041-.154-.02-.324-.06-.477a1.073,1.073,0,0,0-1.288-.645c-.829.219-1.093,1.209-2,1.615a15.2,15.2,0,0,1-1.192,1.827,7.059,7.059,0,0,0-1.612,2.1,19.466,19.466,0,0,1-.793,2.214,4.227,4.227,0,0,0-.586,2.75,1.949,1.949,0,0,0,.529.879c.6-.455,1.689-.941,1.766-1.519.309.05.32-.282.256-.4a34.947,34.947,0,0,0,4.2-4.5c.307-.081.332-.482.639-.564.246-.065.249-.427.341-.451.062-.017.147.06.147.06-.1-.369,1.433-1.661,1.325-1.7a14.892,14.892,0,0,0,2.6-2.725c.408-.568.58-1.534,1.255-1.712.86-.228,1.284.382,1.5,1.181a16.656,16.656,0,0,1,.246,2.793,14.57,14.57,0,0,0,.487,2.335c.309,1.167.7,2.379,1.013,3.576a42.153,42.153,0,0,1,1,6.142,9.444,9.444,0,0,0,.929-.214c.8-.211,1.619-.461,2.448-.681,1.535-.407,3.985-.957,4.375.517.187.706.09,1.455-.647,1.65a.443.443,0,0,1-.2-.244c-.082-.307.269-.6.188-.9-.284-1.075-3.056-.373-4.376-.024a6.178,6.178,0,0,0-3.1,2.331,17.372,17.372,0,0,1-1.465,6.006,15.229,15.229,0,0,1-2.656,2.872c-.464.977-.491.13-1.695,1.664a5.314,5.314,0,0,1-2.836,1.573c-1.535.407-2.477-.3-2.647-.941-.293-1.105.138-1.712.5-2.7.587-2.127,1.272-2.144,1.175-2.512.368-.1,2.477-3.548,6.781-6.527a2.033,2.033,0,0,1,.045-1.2,22.373,22.373,0,0,0-1.07-7.142c-.228-.86-.447-1.689-.667-2.518a32.146,32.146,0,0,1-.79-3.6.231.231,0,0,0-.217-.074c-.153.041-.289.274-.348.421-.342.32-1.1.323-.9,1.06-.583.155-.72.881-.965.945-.647.533-1.033,1.062-1.641,1.618a8.959,8.959,0,0,1-1.417,1.722c-.2.218-.543.308-.84.551-.164.372-.181.8-.611.918-.491.13-.109.456-.355.521-.783.766-.851.882-1.1.948a.5.5,0,0,1-.095.387s-.078-.046-.109-.037c-.153.041-.15.3-.232.489-.182.18-.428.245-.717.519a2.767,2.767,0,0,1-1.427.937c-.553.146-1-.163-1.872-1.114a4.228,4.228,0,0,1-1.223-1.516,7.833,7.833,0,0,1,.6-4.068,10.1,10.1,0,0,0,1.489-2.07c.3-.243.339-.582.636-.825a11.631,11.631,0,0,1,4.143-3.463.468.468,0,0,1,.207-.087,4.542,4.542,0,0,1,1.287.02c.833.043.985-.129,1.759.191.49.363.85.235,1,.787a1.676,1.676,0,0,1-.258,1.383C239.9,119.869,239.467,119.983,239.321,119.431Zm3.936,17.718c-1,.692-.676.672-1.15,1.487-.412.306-1.066.315-1.273,1.52-.092.024-.231,0-.292.012-.153.04-.653,1.257-.868,1.314-.794,1.1-1.674,2.612-1.34,3.871.162.614.932.542,1.454.4a4.67,4.67,0,0,0,2.805-2.682c.217-.419.726.136.474-.815,1.167-.309,1.329-1.929,1.521-2.571.162-.5.414-.175.293-.505-.106-.4.462-.615.3-1.229a4.493,4.493,0,0,0,.3-2.215c-.033-.123-.073-.276-.272-.158A19.569,19.569,0,0,0,243.257,137.149Z" transform="translate(-93.677 -91.926)"/>
      <path d="M265.974,109.426c.474-.043.7-.413.852-.81a29.659,29.659,0,0,0,2.7-4.068c.749-.9,1.3-1.807,2.051-2.735a19.6,19.6,0,0,0,1.76-2.422c.465.214.371-.48.861-1.066.227-.307.745-.577,1-.919.115-.138.17-.59.328-.6,1-.568,1.459-1.5,2.47-2.326.115-.138.285-.025.368-.16a5.8,5.8,0,0,1,2.189-1.185,3.6,3.6,0,0,1,1.081.318c1.808.252,1.9.882,2.571,2a6.261,6.261,0,0,1,1.108,2.037c.145,1.613.439,3.468.592,5.176.024,1.688-.377,3.255-.259,4.583.023.253-.026.417.322.386,1.328-.12,1.957-1.993,2.087-2.324a4.569,4.569,0,0,0,.36-.606c.2-.273.657-1.207,1.278-1.39.277-.471.363-.925.723-1.181.147-.14.526-.175.639-.344.27-.184.247-.437.36-.606.242-.149.432-.166.607-.342.115-.138.1-.3.406-.451.348-.032,1.163-1.252,2.238-1.349.506-.045,1.86.12,2.221.949a4.129,4.129,0,0,1,.826,2.094,13.964,13.964,0,0,1-.2,3.047c-.08,1.6-.746,3.064-.884,5.085-.823,3.613-2.784,8.062-2.494,11.288a9.02,9.02,0,0,0,2.344,4.8c.419.409.982.645,1.286,1.192.96.041,1.653.649,2.616.722a11.367,11.367,0,0,0,1.5-.007,11.513,11.513,0,0,0,5.256-1.843,9.285,9.285,0,0,1,2.1-1.783,20.141,20.141,0,0,1,1.362-1.526c.1-.264.052-.834.294-.983a1.47,1.47,0,0,1,.259.041c.158-.014.265-.6.55-.623a.346.346,0,0,1,.227.043c.124,1.392-.936,1.646-1.105,2.618a4.225,4.225,0,0,0-1.324,1.586,14.043,14.043,0,0,1-7.449,3.347,1.307,1.307,0,0,1-.517-.082c-.1.009-.208.178-.4.2a4.713,4.713,0,0,1-2.61-.659c-.268-.136-.665.06-.805-.087a10.006,10.006,0,0,1-2.129-1.339c-.011-.126-.233-.107-.233-.107-.189-.334-.4-.857-.654-1.249-.718-.542-2.64-2.059-3.051-6.646a18.123,18.123,0,0,1,1.239-7.158c-.08-.885.548-1.707,1-3.82a12.547,12.547,0,0,0,1-3.82,7.6,7.6,0,0,0,.648-3.088,3.6,3.6,0,0,0-.215-.969c-1.044.094-1.288.562-2.143,1.34-.239.181-.492.2-.607.341-.6.373-1.765,2.008-1.987,2.027a.435.435,0,0,1-.368.161,6.891,6.891,0,0,0-1.037,1.942c-.231.276-.61.31-.743.609a5.669,5.669,0,0,1-1.428,2.2c-.1.009-.066.325-.055.451a19.509,19.509,0,0,0-3.305,6.514,26,26,0,0,0-1.493,5.395,2.782,2.782,0,0,1-1.715,1.143.836.836,0,0,1-.919-.651,1.234,1.234,0,0,1-1-1.186,10.753,10.753,0,0,1,.334-2.676c.2-1.006.282-2.193.444-2.878.089-.422.306-.856.424-1.313.28-1.141.555-2.7.945-4.039.1-.679.332-1.274.446-2.145-.014-.158.276-.471.265-.6a38.6,38.6,0,0,0,.8-7.406,12.666,12.666,0,0,1,.269-1.618c-.131-1.455-.413-3.534-1.678-3.421a4,4,0,0,0-2.278,1.257,14.073,14.073,0,0,0-2.093,1.91,17.873,17.873,0,0,0-1.175,1.477c-.706,1.371-2.292,2.533-3.349,4.254-.144.172.029.316-.118.457a8.585,8.585,0,0,0-2.048,2.766,7.861,7.861,0,0,1-1.852,2.813c.011.127,0,.351-.159.365-.063.006-.132-.052-.227-.043.008.095.078.152.083.216l-.084.135c-.032,0-.1-.086-.2-.078a8.557,8.557,0,0,1-.438,1.155,21.789,21.789,0,0,0-1.252,3.11c-.081.167-.323.316-.424.612.043.474-.015.543-.435,1.187-.115.138-.1.36-.268.566-.187.4-.581.626-.674,1.017a4.141,4.141,0,0,0-.407,1.5c-.6,1.169-1.318,3.785-2.078,3.853-.6.054-1.636-.459-1.678-.934a9.2,9.2,0,0,1,.477-2.5c.4-1.98.481-3.168.958-5.315.318-1.431.836-2.051.72-3.348-.04-.443-.224-.714.364-1.276.422-2.4.975-5.476,1.513-8.012a9.889,9.889,0,0,0,.521-3.076,11.5,11.5,0,0,0-.609-2.879c-.011-.126-.307-.227-.482-.4-.15-1.676-1.493-1.715-1.323-1.6-.126.012-.138-.115-.279-.262-.284.025-.532.111-.785.134-.949.085-.243-.584-1.762-.448-2.942.264-5.088,1.573-7.344,3.083-.36-.1-1.039.858-1.994,1.582-.227.307-.671.347-.849.491-.144.172-.28.44-.5.778a2.422,2.422,0,0,0-.789.454c-.126.011-.1.328-.181.463-1.773,1.211-2.459,2.8-3.369,4.384a19.245,19.245,0,0,1-.37,1.914c.6.616.418,1.461.866,2.187.379.667,1.166.915,2.147,1.178a9.594,9.594,0,0,0,3.168.481c2.973-.267,5.9-2.443,6.44-4.627-.684-.162-1.486-.218-1.836-.92a4.306,4.306,0,0,1,.835-1.35c1.4,0,2.337.46,2.457,1.789a5.016,5.016,0,0,1-.087.805c.012.126-.417.324-.487.617-.216.434-.562,1.2-.807,1.667-.115.138-.622.183-.881.493-.242.149-.219.4-.455.615-.274.152-.653.186-.926.338-.754.482-.619.566-1.283.625-.854.076-1.254.591-1.666.627a2.732,2.732,0,0,1-.874.206,8.786,8.786,0,0,1-2.61-.308c-1.239-.3-2.222-.247-3.423-1.192q-.513-.384-.716-.51c-.155-.305-.208-.906-.415-1.429-.04-.443-.341-.958-.378-1.369a6.784,6.784,0,0,1,.283-1.46c.09-.423.05-.865.114-1.222.1-.328.519-.621.847-1.224-.045-.506.371-.48.357-.638.081-.167.058-.42.2-.592s.512-.333.777-.58a21.639,21.639,0,0,1,4.317-3.767c-.037-.06.061-.388.125-.394s.164.049.258.041a10.789,10.789,0,0,1,.953-1.106,17.925,17.925,0,0,0,2.526-1.343,8.5,8.5,0,0,0,1.211-.364,9.81,9.81,0,0,1,3.1-1.362c.411-.037.8-.008.891-.016.472-.074.816-.137,1.133-.165a6.029,6.029,0,0,1,4.343,1.491,3.28,3.28,0,0,0,.769,1.111c-.136.267.439.63.72.924.164.4.2.811.364,1.211a6.426,6.426,0,0,1,.705,2.169,20.018,20.018,0,0,1-.476,6.42c.014.158-.227.307-.227.307a3.692,3.692,0,0,0,0,1.021,14.7,14.7,0,0,0-.227,2.444,1.513,1.513,0,0,0,.066.377A.8.8,0,0,0,265.974,109.426Z" transform="translate(-93.677 -91.926)"/>
      <path d="M298.664,114.817c.329-.171.627-.376.924-.549.1-.09.137-.183.236-.241a.031.031,0,0,0,.034-.03c.237-.241.182-.4.552-.731a4.848,4.848,0,0,0,.635-.5c0-.063.5-.893.5-.925a7.3,7.3,0,0,1,1.428-1c.227-.623,1.052-.574,1.121-.665.134-.119.149-.373.276-.365a4.389,4.389,0,0,1,1.326-.367,1.955,1.955,0,0,1,1.306-.559c.6.036,2.949.716,2.847,2.428-.039.666-.609,1.141-.887,1.538-2.227,1.077-2.3,1.232-3.7,1.785a5.945,5.945,0,0,1-2.575,1.024,6.819,6.819,0,0,0-.963,1.756,6.12,6.12,0,0,0-.549,1.75,2.874,2.874,0,0,0,1.1,1.275,2.038,2.038,0,0,0,1,.219c.349.021.7.073,1.013.092a5.466,5.466,0,0,0,2.768-.536,7.83,7.83,0,0,1,1.324-.335c.131-.056.691-.373.853-.426.194-.052.417-.039.579-.093a12.426,12.426,0,0,0,1.863-.844,1.211,1.211,0,0,0,.688-.341c.1-.058.271-.27.369-.328.433-.325.778-.781,1-.768.788-.431,1.415-.807,1.977-1.156l.268-.239a8.9,8.9,0,0,1,.829-.555c.714-.244.83-.587,1.093-.73.086.164,1.1-.762,1.1-.762.033-.03.093.037.087.132.032,0,.065-.028.1-.058l-.2.751L316.507,116a5.263,5.263,0,0,1-.772.686c-.467.354-.784.335-1.215.628l-.9.647c-.763.527-1,.736-2.123,1.465l0-.032-.1.026a2.056,2.056,0,0,0-1.375.65c-.721.339-1.735.279-2.308.817-.419.1-.768.082-1.154.154a7.569,7.569,0,0,1-3.52.332l-.117-.166a1.1,1.1,0,0,1-.319.013c-1.174-.07-3.174-1.747-3.011-4.506a12.028,12.028,0,0,1,.042-1.779c-.065.028-.1.058-.13.056a3.1,3.1,0,0,1-.721.339l-1.319.78a.916.916,0,0,1-.539-.032l-.216-.108c.433-.324,1-.7,1.1-.762C298.141,115.041,298.369,114.959,298.664,114.817Zm5.266-.26c.412.024.517-.129,1.039-.352.723-.371,1.129-.251,1.468-.613.134-.119.92-.486,1.055-.605a2.218,2.218,0,0,0,1.417-1.889.81.81,0,0,0-.809-.844c-1.236-.073-2.414,1.543-2.936,2.276-1.1,1.366-1.531,1.15-1.575,1.879C303.578,114.568,303.8,114.549,303.929,114.557Z" transform="translate(-93.677 -91.926)"/>
      <path d="M319.358,111.755c.647-1.08.406-1.3,1.466-2.057,1.587.137,1.956,1.585,1.526,3.38-.283,1.112-1.219,1.889-1.267,2.943.747.351,1.495-.458,2.247-.911a1.478,1.478,0,0,0,.638-.344,25.14,25.14,0,0,1,2.8-1.3,1.129,1.129,0,0,0,.637-.344,5.428,5.428,0,0,1,1.223-.374,1.54,1.54,0,0,1,.423-.412,4.232,4.232,0,0,0,.6-.125c.141-.073.277-.308.423-.412.361-.036.8.037,1.165-.03a1.672,1.672,0,0,1,2.229.729c.072.141-.058.345.015.486a4.028,4.028,0,0,1,.4,2.612c-.058.924-.634,1.665-.546,2.485.418.2.731-.135,1.2-.249.622-.25,1.264-.625,1.934-.964.093.016.187.032.209-.094.125.021.309-.3.4-.287.016-.094.251.042.251.042.225-.188.716-.234,1-.412a4.639,4.639,0,0,1,1.024-.536,10.014,10.014,0,0,0,1.108-.265c.459-.051.591-.255.934-.2.69.116.814.717,1.32,1.155a5.153,5.153,0,0,1-.028,1.509,5.276,5.276,0,0,1-.649,1.759c-.131.2-.1.564-.226.767a16.022,16.022,0,0,0-1.16,1.351.429.429,0,0,0-.252.151,3.57,3.57,0,0,1-.465.663,4.064,4.064,0,0,1-1.333,1.032c-.389,1.545-1.918,1.643-2.224,3.46.13.956,1.451.372,2.084.253.574-.161.522-.427,1.035-.6a1.434,1.434,0,0,0,.59-.255c.283-.146.445-.537.921-.683a5.771,5.771,0,0,0,.877-.432,3.734,3.734,0,0,0,.784-.641c.5-.3.742-.777,1.119-.907a3.418,3.418,0,0,0,.773-.579,10.359,10.359,0,0,1,1.009-.636.851.851,0,0,0,.251-.151c.042-.057.109-.078.183-.13.22-.156.408-.318.47-.308.935-.39,1.63-.693,2.294-1l.262-.214a4.788,4.788,0,0,1,.877-.432,3.95,3.95,0,0,0,1.165-.61c.1.146,1.2-.636,1.2-.636.078-.084.071.187-.431.682l-.191.1L349.591,121c-.293.209-.664.5-.915.652-.528.266-.846.245-1.275.495a7.5,7.5,0,0,1-.94.422l-.47.308c-.366.261-1.129.777-1.5,1.069a12,12,0,0,0-1.191.959,12.721,12.721,0,0,0-1.286.944c-.288.177-1.03.568-1.291.782-.365.068-.941.615-1.416.76-.146.1-.742.391-.888.5a3.291,3.291,0,0,1-1.818.081c-.679.015-.48-.209-1.1-.57-.2-.355-.119-.825-.391-1.321a2.868,2.868,0,0,1-.1-1.306c-.005.032.136-.042.146-.1a2.369,2.369,0,0,1-.01-.71,10.036,10.036,0,0,1,1.178-2.218A14.557,14.557,0,0,1,337.873,120c.184-.324.486-.595.639-.924a5.774,5.774,0,0,0,.517-.4c.14-.073.057-.345.2-.417.607-.736,1.266-1.205,1.506-1.873a8.4,8.4,0,0,0-2.555.634,13.057,13.057,0,0,0-1.829,1.11c-.016.094-.361.036-.47.114-.418.188-.591.642-.988.317a4.562,4.562,0,0,1-2.1,1.387c-.529.845-1.333.839-2.122,1.512-.146.1-.189.355-.345.522,0,0-.22-.037-.241.089-.277.308-.533.49-.841.793-.236.057-.152.329-.408.511-.4.287-1.494.458-1.854-.085a1.12,1.12,0,0,1-.3-.123l-.136-.176a5.533,5.533,0,0,1,.08-1.823,4.815,4.815,0,0,1,.54-1.1c.161-.2.381-.161.517-.4.156-.167.073-.439.236-.637a46.989,46.989,0,0,0,2.887-3.96c.141-.073.2-.449.236-.637a2.175,2.175,0,0,0,.728-1.649c-.366-.512-.966.192-1.635-.049a4.206,4.206,0,0,1-2.048,1.073c-.114.109-.365.067-.49.239-.22-.037-.387.193-.533.3a8.746,8.746,0,0,1-1,.38,9.215,9.215,0,0,0-.92.683c-.236.057-.486.015-.6.125a5.942,5.942,0,0,1-2.446,1.329c-.831.923-2.09,1.324-3.183,2.268-.152.329-.465.662-.612.96a2.425,2.425,0,0,0-.7.689c-.842.793-1.176,1.445-2.774,1.177-.265-.528-.772-.967-.755-1.641-.031-.585.392-1,.817-1.6.189-.355.22-.543.4-.867,0,0,.241-.088.262-.213a9.374,9.374,0,0,0,1.235-1.79,9.507,9.507,0,0,1,.638-.924l.753-1.033C318.492,113.429,318.922,112.409,319.358,111.755Z" transform="translate(-93.677 -91.926)"/>
      <path d="M361.953,126.251a3.715,3.715,0,0,1-1.777.684,4.416,4.416,0,0,0-.887-.02,5.122,5.122,0,0,1-.842-.172c-.4-.112-.144-.074-.647-.282a2.067,2.067,0,0,1-.656-.483c-.555-.256-.732.255-1.051.33a21.727,21.727,0,0,1-3.536,1.178,18.363,18.363,0,0,1-2.884.273,3.665,3.665,0,0,1-.934-.2,2.5,2.5,0,0,1-1.161-.328c-.127-.135-.888-.713-1.211-.97a3.751,3.751,0,0,1-.638-4.043,5.8,5.8,0,0,1,1.943-3.015,6.613,6.613,0,0,1,1.446-.911l.628-.35c.256-.092.335-.367.561-.469a2.154,2.154,0,0,0,.581-.067c.139-.026.217-.3.309-.276.235-.131.51-.054.72-.093a7.739,7.739,0,0,1,3.294.14,5.855,5.855,0,0,1,.983.377c.122.035.136.336.227.362s.3-.014.367.1a2.067,2.067,0,0,1,.622,1.067c.872-.05,1.106.643,1.451,1.17a3.4,3.4,0,0,1,.378,2.748,2.975,2.975,0,0,1-.677,1.228c-.314.407-.587.791-.949,1.25a2.016,2.016,0,0,0,1.491.917c.528.117.284.047.917.028l.262.008a2.842,2.842,0,0,0,1.146-.5,10.847,10.847,0,0,1,1.086-.639,7.678,7.678,0,0,0,.959-.646c.362-.2.4-.359.663-.472.743-.213.89-.554,1.15-.667,0,.031.3-.174.329-.172l.825-.526c.066-.06.236.332-.239.846,0,0-.294.143-.554.255l-2.245,1.433a1.785,1.785,0,0,1-.43.294l-.361.2Zm-5.564-.982c-.357-1.422-1.067-3.109-.592-4.789a4.456,4.456,0,0,1,.691-1.389c-.093-.488-.133-.7-.959-.931-.58-.164-1.221.116-2.4.673-.112.4-.81.53-1.072.753a9.222,9.222,0,0,1-1.027.831c-.518.547-.609.289-1.245.9a8.406,8.406,0,0,0-1.145,1.36c-.03-.009-.709.756-.709.756a9.478,9.478,0,0,0-.494,1.28,1.83,1.83,0,0,0,.165,1.4,3.085,3.085,0,0,0,1.485.817,3.948,3.948,0,0,0,1.885.1c.807-.168,1.523-.13,2.2-.3a12.561,12.561,0,0,0,1.365-.505c.2-.009.658-.342.78-.307.182-.179.515-.184.54-.276C356.245,125.426,356.293,125.605,356.389,125.269Zm2.354-2.833a1.775,1.775,0,0,0-.717-2.25c.045.541-.806.4-1,.74a5.684,5.684,0,0,0-.3,2.689c.045.309.273.9.578.989A4.188,4.188,0,0,0,358.742,122.436Z" transform="translate(-93.677 -91.926)"/>
      <path d="M365.751,123.127l1.361-.59a2.466,2.466,0,0,0,.326-.625c.14-.388.22-.8.338-1.127.377-1.046.937-.54,1.462-1.06.808.291,1.853.667,1.583,1.414-.193.538-.965.9-1.16,1.438-.2.568.55,2.223.251,2.116a4.759,4.759,0,0,1,.254,3.23,13.01,13.01,0,0,1-1.941,2.2,9.044,9.044,0,0,0-1.913,1c-.344.112-.269-.1-.967.529-.452.411-1.534.7-1.805,1.544a.5.5,0,0,0,.235.659,2.778,2.778,0,0,0,1.482.2,4.28,4.28,0,0,0,1.012-.277,18.793,18.793,0,0,0,2.321-.446c.271,0,.566-.167.849-.2.252-.044.491.042.653-.035.272,0,.447-.21.61-.286a7.633,7.633,0,0,0,1.95-.445c.555-.137,1.485-.376,2.252-.538.185-.136.285-.134,1.224-.3l.767-.162,1.071-.256a1.805,1.805,0,0,1,.446-.21,4.532,4.532,0,0,1,.96-.228l.272,0,.647-.205.355-.142a.031.031,0,0,0,.019.041l1.429-.5a1.093,1.093,0,0,1-.337.655l-.466.17s-.152.046-.6.156l-1.84.519c-.345.112-.732.344-1,.418a6.564,6.564,0,0,1-.917.109l-.111.027-2.4.655a11.736,11.736,0,0,0-1.825.659,8.863,8.863,0,0,0-2.527.642l-1.817.358c-1.494.306-3.467.911-4.723.459-1.822-.657-1.309-2.362-1.007-3.2.71-1.972,2.934-2.993,4.52-4.583.634-.447,1.216-.845,1.366-1.263.193-.538-.131-2.072-.61-2.244-.926-.334-1.179.183-2.482.422" transform="translate(-93.677 -91.926)"/>
      <path d="M381.326,128.51a15.543,15.543,0,0,1,2.153-1.294l.029.013c.115.052.3.1.368-.043.013-.029.01-.1.023-.129a1.564,1.564,0,0,1,.919-.108c.318.144,1.189.92.849,1.673-.184.405-.8.857-1.078,1.152-.052.115-.073.315-.125.431-.209.463-.906.463-1.154,1.013-.131.289-.816.573-1.3,1.26a2.26,2.26,0,0,0-1.6,1.542c-.777.486-2.323,1.286-2.546,1.779a1.5,1.5,0,0,0,.453.309,3.337,3.337,0,0,0,2.643-.062l-.016-.042c.887.121,2.572-.756,2.832-.638.655.017,1.548-.417,2.145-.427,1.563-.375,3.561-.554,5.176-1.045,1.059-.184,1.783-1.635,3.288-1.339a1.516,1.516,0,0,1,.22,1.982c-.849,1.882-2.139,4.123-3.511,6.466-.366.811-.69,1.606-1.029,2.359a9.222,9.222,0,0,1-1.075,1.919c-.261.579-1.214,1.3-1.475,1.879.016.042.074.068.131.094.84.379,1.721.358,2.647.776,1.332.6,2.609,1.247,2.086,2.405a2.863,2.863,0,0,1-3.391,1.258c.536-1.187,1.953-.234,2.594-1.653.013-.029.058-.67-.376-.867a9.735,9.735,0,0,1-1.01-.386c-.956-.431-2.512-.611-2.947-.807-.919.108-1.774,1.151-2.6,1.824-.545.591-.824.36-1.189.858a1.8,1.8,0,0,1-.974.536,8.632,8.632,0,0,1-2.539.84c-.924.35-2.8.652-3.1.763-1.63.136-1.932.034-3.481.067a10.144,10.144,0,0,1-4.507-.745c-.724-.326-2.238-1.219-1.637-2.551a1.541,1.541,0,0,1,1.186-.929.551.551,0,0,1,.325-.027.248.248,0,0,1,.007-.171c.066-.145.107-.161.166-.135s.074.068.1.081c.434.2,1.6-.6,2.617-.7,1.245-.518,2.65-.233,4.822-.646a1.338,1.338,0,0,1,.439-.046.933.933,0,0,1,.205.162c2.444-.4,4.835.022,6.533-.188.434-.5.986-.949,1.392-1.463a14.512,14.512,0,0,0,1.361-1.86,7.5,7.5,0,0,0,1.668-2.384c.457-1.014.855-2.124,1.338-3.2a17.708,17.708,0,0,1,2.5-3.227c0-.071-.018-.113-.047-.126-.115-.052-.307.14-.307.14-.782-.353-.961.507-1.714.167-.289-.131-.546.207-.714.27-.652.054-1.122.016-1.24.277a.112.112,0,0,1,0,.071c-.294.112-.708-.284-1.13.187a1.138,1.138,0,0,1-.631-.146,19.345,19.345,0,0,1-4.73,1.212,6.1,6.1,0,0,1-3.114.337,4.5,4.5,0,0,1-2.144-.27,3.262,3.262,0,0,1,.155-2.892,6.27,6.27,0,0,1,.95-1.488c.131-.289.532-.561.755-1.054.483-1.071,1.865-1.354,2.179-2.049C380.169,129.452,381.326,128.51,381.326,128.51Zm.382,20.7a2.924,2.924,0,0,0,1.19-1.17l-1.085-.142a4.974,4.974,0,0,0-1.919.005c-.841.318-1.523-.409-2.616,0a20.183,20.183,0,0,0-3.127.366,5.571,5.571,0,0,1-1.223.006,11.929,11.929,0,0,0-1.668.607c-.294.111-.657-.088-.907.078-.71.725-1.728.51-1.989,1.089-.223.492.417.851.678.968a6.911,6.911,0,0,0,1.981.476c3.738.676,5.669.258,7.657-.518.975-.152,1.605-1.087,1.944-1.144Z" transform="translate(-93.677 -91.926)"/>
    </g>
    <g id="Layer_2" data-name="Layer 2">
      <path class="cls-2" d="M293.984,253.856c-4.333-1.8-5.494-5.3-3.99-9.74a16.484,16.484,0,0,0,.124-10.848c-3.277-9.386-14.039-11.038-26.549-7.924,1.564,4.339,3.126,8.658,4.694,13.007l.6,1.648-1.739-.237a10.347,10.347,0,0,0-8.871,3.1l-1.212,1.267-.562-1.66c-1.479-4.38-2.945-8.733-4.421-13.1-11.728,5.348-19.126,13.339-15.849,22.726a16.5,16.5,0,0,0,6.846,8.415c3.945,2.542,5.214,6,2.941,10.107-4.733,8.556-6.051,18.624-2.941,27.534,5.956,17.06,25.134,21.376,44.567,14.592s31.757-22.1,25.8-39.158C310.31,264.668,303.014,257.609,293.984,253.856Zm-31.2-12.254a10.456,10.456,0,1,1-6.425,13.318A10.454,10.454,0,0,1,262.784,241.6Zm-.328,44.274a11.562,11.562,0,0,0-1-7.713l25.118-8.769a11.535,11.535,0,0,0,4.017,6.66A86.253,86.253,0,0,1,262.456,285.876Zm-11.593-63.358,9.374-3.273q.89,2.463,1.778,4.926l-9.479,3.309Q251.7,225,250.864,222.518Zm-4.026-11.939,9.124-3.185c.592,1.638,1.188,3.287,1.778,4.926l-9.228,3.221C247.953,213.89,247.394,212.231,246.837,210.579Zm-2.014-5.968,9-3.141c.592,1.638,1.188,3.287,1.778,4.926l-9.1,3.178C245.941,207.921,245.38,206.261,244.824,204.61Zm9.961,29.524,9.617-3.357c.534,1.479,1.067,2.953,1.6,4.434l-9.709,3.39C255.786,237.108,255.286,235.624,254.784,234.134Zm-14.249-69.408c.738,2.035,1.475,4.084,2.214,6.121l-8.315,2.9c-.69-2.054-1.388-4.117-2.077-6.169Zm12.343,63.76,9.5-3.316q.832,2.305,1.662,4.606l-9.6,3.35Q253.661,230.8,252.878,228.486ZM248.85,216.55l9.248-3.228q.889,2.46,1.778,4.926l-9.354,3.266C249.967,219.859,249.408,218.2,248.85,216.55Zm-14.079-41.792,8.339-2.911,1.78,4.925-8.448,2.949Zm21.858,64.848,9.731-3.4c.3.835.6,1.666.9,2.5a11.409,11.409,0,0,0-9.783,3.415C257.195,241.285,256.914,240.447,256.629,239.606ZM242.814,198.64l8.867-3.1,1.78,4.925-8.977,3.134C243.925,201.945,243.372,200.3,242.814,198.64Zm-6.03-17.911,8.47-2.957q.892,2.459,1.78,4.925l-8.578,2.995Q237.616,183.21,236.783,180.729Zm2.008,5.97,8.6-3q.89,2.463,1.78,4.925l-8.712,3.042Q239.628,189.18,238.791,186.7Zm2.012,5.969,8.734-3.049c.594,1.642,1.188,3.28,1.78,4.925l-8.845,3.088C241.915,195.975,241.359,194.326,240.8,192.669Zm-21.411-50.154a23.53,23.53,0,0,1,15.686-5.476c.9,6.41,2.166,13.757,4.933,20.155a7.434,7.434,0,0,0-.071,5.83l-8.187,2.858a7.411,7.411,0,0,0-3.68-4.521h0C226.261,154.63,222.675,148.094,219.393,142.515Zm17.456-1.553c-.163-1.007-.245-1.836.6-1.976a1.88,1.88,0,0,1,.605,3.654C237.207,142.78,237.019,141.971,236.848,140.961Zm1.277,6.28c-.266-1.021-.429-1.86.427-2.084a1.937,1.937,0,0,1,.965,3.693C238.66,149.075,238.389,148.263,238.125,147.241Zm4.108,5.568a1.8,1.8,0,0,1-.9,2.365c-.854.3-1.189-.505-1.541-1.514s-.591-1.848.263-2.146A1.806,1.806,0,0,1,242.233,152.809Zm-23.944-4.921a1.724,1.724,0,0,1,.46-2.375c.751-.42,1.2.283,1.7,1.173s.854,1.646.1,2.064A1.725,1.725,0,0,1,218.289,147.888Zm3.441,3.141c.809-.357,1.2.4,1.631,1.366s.72,1.767-.088,2.126a1.937,1.937,0,0,1-1.543-3.491Zm2.776,5.916c.852-.3,1.189.505,1.542,1.516s.588,1.847-.264,2.144a1.968,1.968,0,0,1-1.278-3.66Z" transform="translate(-93.677 -91.926)"/>
    </g>
    <g>
      <path class="cls-3" d="M109.3,247.413l26.175,7.818-21.908-14.336,3.215-4.913,32.6,21.334-3.454,5.276-25.3-6.9L141.5,269.351l-3.215,4.913-32.6-21.333Z" transform="translate(-93.677 -91.926)"/>
      <path class="cls-3" d="M128.11,221.45a9.308,9.308,0,0,1,13.151-.882l16,13.986a9.3,9.3,0,1,1-12.249,14.01l-16-13.986a9.308,9.308,0,0,1-.9-13.128Zm9.03,3.644a3.341,3.341,0,0,0-4.735.317,3.285,3.285,0,0,0-.838,2.444,3.208,3.208,0,0,0,1.135,2.314L148.747,244.2a3.2,3.2,0,0,0,2.443.817,3.29,3.29,0,0,0,2.312-1.157,3.34,3.34,0,0,0-.318-4.734Z" transform="translate(-93.677 -91.926)"/>
      <path class="cls-3" d="M147.912,202.287q3.692-3.236,7.2-2.716a9.82,9.82,0,0,1,5.859,3.624l3.726,4.251a9.1,9.1,0,0,1,2.246,7.326l14.47,9.917-4.777,4.184L164.3,220.19c-.126.109-.257.225-.4.348l-2.547,2.231,9.663,11.03-4.416,3.869-25.652-29.28Zm8.823,4.744q-2.23-2.547-4.755-.337l-2.664,2.333,8.21,9.372,2.663-2.334a3.208,3.208,0,0,0,1.133-2.314,3.291,3.291,0,0,0-.841-2.444Z" transform="translate(-93.677 -91.926)"/>
      <path class="cls-3" d="M189.038,219.172l-4.937,3.179-21.088-32.758,7.085-4.562,19.75,20.569-10.732-26.373,6.806-4.382L207.01,207.6l-4.937,3.177L188.822,190.2l8.968,23.342-3.97,2.556-18-17.454Z" transform="translate(-93.677 -91.926)"/>
      <path class="cls-3" d="M213.233,194.854l2.474,8.716-5.545,2.574-10.391-38.093,7.325-3.4,22.312,32.561-5.6,2.6-5.014-7.536Zm-6.073-20.4,4.491,14.836,3.945-1.832Z" transform="translate(-93.677 -91.926)"/>
      <path class="cls-3" d="M268.255,146.215l1.087,5.8-5.625,28.708,10.628-1.989,1.075,5.742-16.857,3.155-1.081-5.777,5.656-28.709-10.651,2.026-1.086-5.8Z" transform="translate(-93.677 -91.926)"/>
      <path class="cls-3" d="M278.8,184.073l-1.743-38.919,16.7-.749.265,5.9-10.832.485.477,10.614,7.913-.355.265,5.9-7.915.355.476,10.613,10.831-.485.265,5.9Z" transform="translate(-93.677 -91.926)"/>
      <path class="cls-3" d="M308.953,145.3l4.757,26.9,2.984-26.012,5.833.668-4.441,38.7-6.265-.719-5.181-25.705L303.8,183.919l-5.834-.668,4.441-38.7Z" transform="translate(-93.677 -91.926)"/>
      <path class="cls-3" d="M332.449,155.329l-6.026-1.631,1.542-5.7,17.692,4.791-1.543,5.7-6-1.623-8.631,31.876-5.668-1.535Z" transform="translate(-93.677 -91.926)"/>
      <path class="cls-3" d="M336.092,190.646l15.4-35.784,15.352,6.61-2.334,5.421-9.959-4.287-4.2,9.759,7.277,3.133-2.334,5.421-7.277-3.132-4.2,9.759,9.958,4.287-2.334,5.422Z" transform="translate(-93.677 -91.926)"/>
      <path class="cls-3" d="M380.008,168.834l-7.348,26.31L386.6,172.984l4.97,3.126-20.747,32.975-5.337-3.359,6.448-25.416-13.285,21.114-4.97-3.127,20.747-32.974Z" transform="translate(-93.677 -91.926)"/>
      <path class="cls-3" d="M406.606,187.758a9.308,9.308,0,0,1,.869,13.153l-14,15.983a9.3,9.3,0,1,1-14-12.263l14-15.984a9.305,9.305,0,0,1,13.127-.888Zm-3.652,9.025a3.342,3.342,0,0,0-.313-4.734,3.29,3.29,0,0,0-2.445-.841,3.213,3.213,0,0,0-2.314,1.133l-14.044,16.031a3.208,3.208,0,0,0-.818,2.443,3.279,3.279,0,0,0,1.155,2.311,3.339,3.339,0,0,0,4.734-.312Z" transform="translate(-93.677 -91.926)"/>
    </g>
    <path d="M200.256,134.6a7.758,7.758,0,0,1,.447-1.944c.089-.807.121-1.275.459-1.531a1.972,1.972,0,0,1,2.118-.015c.662,1.234.154,2.579,0,3.553a12.1,12.1,0,0,1-.135,1.246,4.631,4.631,0,0,0,.046.642,4.091,4.091,0,0,1-.131.791l-.081.978-.042,1.064c-.142,1.075-.507.961-.037,2a3.57,3.57,0,0,0,.715.967,2.024,2.024,0,0,0,1.355-.472c.4-.183.675-1.031.94-1.362a7.4,7.4,0,0,0,.7-1.524,2.378,2.378,0,0,0,.623-1.261c.217-.666.37-.532.572-1.018.427-.945-.023-.387.377-.905l.287-.713a3.621,3.621,0,0,0,.216-.495l.418-1.059c.1-.282.283-.872.4-1.129l.209-1.015a2.118,2.118,0,0,1,.136-.391c.136-.391.1-.644.219-.9l.133-.753.571-1.787.011-.089c.03-.064.1.08.1.08l.087.643s-.156.677-.307,1.2c-.181.386-.119.778-.315,1.3a4.361,4.361,0,0,1-.186.737c-.172.5-.247,1.013-.394,1.494l-.245,1.409c-.141.436-.432.99-.538,1.316-.179.951-.455.6-.95,2.127l-.186.431a16.238,16.238,0,0,1-.883,1.751c-.266.534-.688,1.811-1.2,2.146a6.6,6.6,0,0,1-1.712,1.226,1.941,1.941,0,0,1-.951-.024,3.715,3.715,0,0,1-2.52-2.416,3.648,3.648,0,0,1-.386-1.394,21.054,21.054,0,0,1-.091-3.06S200.232,134.85,200.256,134.6Zm1.343-6.983c-.416.083-.762-.144-1.265-.718.131-.791.8-1.93,1.9-1.588a3.841,3.841,0,0,1,.618.906A3.727,3.727,0,0,1,201.6,127.613Z" transform="translate(-93.677 -91.926)"/>
  </g>
</svg>
