<?xml version="1.0" encoding="utf-8"?>
<!-- Generator: Adobe Illustrator 19.2.1, SVG Export Plug-In . SVG Version: 6.00 Build 0)  -->
<svg version="1.1" id="Layer_1" xmlns="http://www.w3.org/2000/svg" xmlns:xlink="http://www.w3.org/1999/xlink" x="0px" y="0px"
	 viewBox="0 0 100 100" style="enable-background:new 0 0 100 100;" xml:space="preserve">
<style type="text/css">
	.st0{fill:#FFFFFF;}
</style>
<path d="M54.2,64.2c-9.4,0-17,7.4-17,16.4c0,9.1,7.6,16.4,17,16.4c9.4,0,17-7.4,17-16.4C71.2,71.5,63.6,64.2,54.2,64.2z M54.2,86.5
	c-3.4,0-6.2-2.7-6.2-6c0-3.3,2.8-6,6.2-6s6.2,2.7,6.2,6C60.4,83.9,57.7,86.5,54.2,86.5z"/>
<path d="M0.2,4.4v6h15.4l24.7,53.7l6.2-3L18.8,4.4L0.2,4.4L0.2,4.4z"/>
<path d="M71.2,70.1l3.1,6l24.7-9l-3.1-6L71.2,70.1z"/>
<path d="M80.5,10.4l-15.3,6.3l-6.3,2.6l0,0l-21.6,9l15.4,32.8c0,0,11-1.9,18.5,6L99,55.2L80.5,10.4z M83.6,61.2l-6.2,3"/>
<path class="st0" d="M72.1,24.1l-11.7,9.3l1.6,4.8l11.7-9.3C73.7,28.9,72.1,24.1,72.1,24.1z M73.2,39.7c-2.1,0.7-3.4,2.6-2.8,4.2
	c0.5,1.6,2.6,2.3,4.8,1.5s3.4-2.6,2.8-4.2S75.3,39,73.2,39.7z M63.1,47.4c-2.1,0.7-3.4,2.6-2.8,4.2c0.5,1.6,2.6,2.3,4.8,1.5
	c2.1-0.7,3.4-2.5,2.8-4.1C67.3,47.4,65.2,46.7,63.1,47.4z M72.1,24.1l-11.7,9.3L66,49.6l1.9-0.7l-5.1-14.8l8.4-6.5l4.9,14.3l1.9-0.7
	L72.1,24.1L72.1,24.1z"/>
</svg>
