<?xml version="1.0" encoding="UTF-8"?>
<svg fill="#FFFFFF" width="100pt" height="100pt" version="1.1" viewBox="0 0 100 100" xmlns="http://www.w3.org/2000/svg">
 <path d="m83.801 95h-67.5c-6.3008 0-11.301-5-11.301-11.301v-67.398c0-6.3008 5-11.301 11.301-11.301h67.5c6.1992 0 11.199 5 11.199 11.301v67.5c0 6.1992-5 11.199-11.199 11.199zm0-75.898c0-1.6016-1.3008-2.8008-2.8008-2.8008h-61.898c-1.6016 0-2.8008 1.3008-2.8008 2.8008v61.898c0 1.6016 1.3008 2.8008 2.8008 2.8008h61.898c1.6016 0 2.8008-1.3008 2.8008-2.8008zm-33.801 53.398c-10.5 0-19.199-7.1992-21.699-16.898h-12v-11.203h12c2.5-9.6992 11.199-16.898 21.699-16.898s19.199 7.1992 21.699 16.898h12v11.203h-12c-2.5 9.6992-11.199 16.898-21.699 16.898zm0-33.699c-6.1992 0-11.199 5-11.199 11.199s5 11.199 11.199 11.199 11.199-5 11.199-11.199c0.10156-6.1992-5-11.199-11.199-11.199zm22.5-16.902h5.6016v5.6016h-5.6016z" fill-rule="evenodd"/>
</svg>
