<?xml version="1.0" encoding="utf-8"?>
<!-- Generator: Adobe Illustrator 19.2.1, SVG Export Plug-In . SVG Version: 6.00 Build 0)  -->
<svg version="1.1" id="Layer_1" xmlns="http://www.w3.org/2000/svg" xmlns:xlink="http://www.w3.org/1999/xlink" x="0px" y="0px"
	 viewBox="0 0 111 112" style="enable-background:new 0 0 111 112;" xml:space="preserve">
<style type="text/css">
	.st0{fill:url(#SVGID_1_);}
	.st1{fill:#77BAED;}
	.st2{fill:#FFFFFF;}
	.st3{fill:#86A8BF;}
</style>
<g>
	
		<linearGradient id="SVGID_1_" gradientUnits="userSpaceOnUse" x1="6" y1="71" x2="106" y2="71" gradientTransform="matrix(1 0 0 -1 0 128)">
		<stop  offset="0" style="stop-color:#9BB6CC"/>
		<stop  offset="1" style="stop-color:#FFFFFF"/>
	</linearGradient>
	<circle class="st0" cx="56" cy="57" r="50"/>
	<circle class="st1" cx="56" cy="57" r="15"/>
	<circle class="st2" cx="56" cy="57" r="2.8"/>
	<path class="st3" d="M21.3,44.6l-3.9-0.8c0.1-0.3,1.5-7.2,9.6-15.3s15-9.6,15.3-9.6l0.4,2l0.4,2c-0.1,0-6.1,1.4-13.2,8.5
		C22.5,38.7,21.3,44.6,21.3,44.6z"/>
	<path class="st3" d="M34.1,46.2l-3.9-0.8c0.1-0.4,1-4.3,5.5-8.8s8.4-5.4,8.8-5.5l0.4,2l0.4,2c0,0-3.1,0.7-6.8,4.4
		C34.8,43.1,34.1,46.2,34.1,46.2z"/>
	<path class="st3" d="M67.2,79.3c0,0,3.1-0.7,6.8-4.4c3.7-3.7,4.4-6.7,4.4-6.8l3.9,0.8c-0.1,0.4-1,4.3-5.5,8.8s-8.4,5.4-8.8,5.5
		L67.2,79.3z"/>
	<path class="st3" d="M84.8,86.4c-8.1,8.1-15,9.6-15.3,9.6l-0.8-3.9c0,0,6.1-1.3,13.2-8.5c7.3-7.3,8.5-13.2,8.5-13.2l3.9,0.8
		C94.4,71.4,93,78.3,84.8,86.4z"/>
</g>
</svg>
