<?xml version="1.0" encoding="utf-8"?>
<!-- Generator: Adobe Illustrator 19.2.1, SVG Export Plug-In . SVG Version: 6.00 Build 0)  -->
<svg version="1.1" id="Layer_1" xmlns="http://www.w3.org/2000/svg" xmlns:xlink="http://www.w3.org/1999/xlink" x="0px" y="0px"
	 viewBox="0 0 100 100" style="enable-background:new 0 0 100 100;" xml:space="preserve">
<style type="text/css">
	.st0{fill:#FFFFFF;}
	.st1{fill:#BF1340;}
</style>
<path class="st0" d="M16.1,21.9c0.5-1.8,1.8-3.2,3.4-4.1c1.7-0.9,3.5-1.1,5.3-0.5c0.7,0.2,1.3,0.6,2,1c1.7-0.6,3.5-1.1,5.2-1.4
	c-1.5-1.9-3.5-3.4-5.9-4.1c-3-0.9-6.1-0.6-8.9,0.9c-2.7,1.4-4.8,3.9-5.8,6.9c-0.7,2.3-0.7,4.8,0,7.1c1.4-1.3,2.7-2.4,4.2-3.6
	C15.7,23.3,15.8,22.6,16.1,21.9z M67.3,90.8c0.7-2.4,0.7-4.9-0.1-7.2c-1.4,1.3-2.7,2.4-4.1,3.5c0,0.7,0,1.5-0.3,2.2
	c-0.5,1.8-1.8,3.2-3.4,4.1c-1.6,0.8-3.5,1.1-5.3,0.5c-0.7-0.2-1.3-0.6-1.9-1c-1.7,0.6-3.5,1.1-5.3,1.5c1.5,1.9,3.5,3.4,5.8,4.1
	c3,0.9,6.1,0.6,8.9-0.9C64.4,96.1,66.4,93.7,67.3,90.8z M45,16.5c1.7-1.8,4.4-2.6,7-1.8c2.6,0.8,4.3,2.9,4.8,5.4
	c1.7,0.8,3.3,1.7,4.8,2.8c0.7-5.6-2.6-10.9-8.2-12.7S42,11.2,39.6,16.3C41.3,16.1,43.2,16.3,45,16.5z M79.7,62.9
	c0.9,1.7,1.1,3.5,0.5,5.3c-0.5,1.8-1.8,3.2-3.4,4.1c-0.6,0.3-1.3,0.6-2,0.6C74,74.5,73,76.2,72,77.6c2.4,0.3,4.8-0.1,7-1.2
	c2.7-1.4,4.8-3.9,5.8-6.9c0.9-3,0.6-6.1-0.9-8.9c-1.1-2.1-2.9-3.9-5-4.9c0,1.8-0.2,3.7-0.4,5.5C79,61.7,79.4,62.3,79.7,62.9z
	 M73.1,32.2c3.6,1.1,5.7,5,4.6,8.7c-0.2,0.7-0.6,1.3-0.9,1.9c0.6,1.7,1.1,3.5,1.5,5.3c1.8-1.4,3.3-3.4,4.1-5.8
	c1.9-6.2-1.5-12.8-7.7-14.6c-2.4-0.8-4.8-0.6-7.1,0.1c1.3,1.4,2.4,2.7,3.6,4.2C71.7,32,72.5,32,73.1,32.2z M34.4,24
	c-1.6,0.3-3.2,0.7-4.9,1.2c-0.4,2-1.6,3.9-3.5,4.9c-1.7,0.9-3.5,1.1-5.3,0.5c-0.3-0.1-0.6-0.3-0.9-0.3c-1.3,1-2.6,2.2-3.8,3.3
	c0.9,0.7,2,1.2,3.2,1.5c3,0.9,6.1,0.6,8.9-0.9C32.1,32.2,34.3,28.1,34.4,24z M54,26.9c-1.7,1.2-3.9,1.7-6.1,1.1
	c-2.2-0.7-3.7-2.3-4.4-4.2c-1.7-0.2-3.3-0.3-5-0.2c0.8,4.1,3.7,7.7,8,9c4.3,1.3,8.7,0,11.8-2.9C56.9,28.6,55.5,27.8,54,26.9z
	 M52.9,81.1c1.7-0.9,3.5-1.1,5.3-0.5c0.3,0.1,0.5,0.2,0.7,0.3c1.4-1.1,2.6-2.2,3.8-3.3c-0.9-0.7-1.9-1.1-3.2-1.5
	c-3-0.9-6.1-0.6-8.9,0.9c-2.7,1.4-4.8,3.9-5.8,6.9c-0.3,1.1-0.5,2.3-0.5,3.5c1.6-0.3,3.2-0.7,4.9-1.2c0.1-0.3,0.1-0.6,0.2-0.9
	C50.1,83.4,51.2,82,52.9,81.1z M65.3,74.5c1-1.3,1.8-2.8,2.6-4.2c-1.2-1.7-1.7-3.9-1-6c0.7-2.2,2.3-3.7,4.3-4.4
	c0.2-1.7,0.3-3.3,0.2-5c-4.1,0.7-7.7,3.8-9.1,8.1C61.2,67,62.4,71.5,65.3,74.5z M69,45.5c-3.6-1.1-5.7-5-4.6-8.7
	c0.1-0.3,0.3-0.6,0.3-0.9c-1.1-1.4-2.2-2.6-3.3-3.7c-0.7,0.9-1.2,2-1.6,3.2c-1.9,6.2,1.5,12.8,7.7,14.6c1.2,0.4,2.3,0.6,3.5,0.5
	c-0.3-1.6-0.7-3.2-1.2-4.8C69.7,45.6,69.3,45.6,69,45.5z"/>
<path class="st1" d="M62.9,85.6L62.9,85.6c1.4-1.1,2.6-2.2,3.8-3.3l0,0c1.5-1.5,2.8-3.1,4-4.8l0,0c0.4-0.7,0.9-1.3,1.3-2
	c0-0.1,0.1-0.2,0.2-0.3c0.4-0.7,0.8-1.4,1.2-2.1l0,0c1-2,1.8-4,2.6-6.2c1.2-3.8,1.7-7.8,1.8-11.7l0,0c-0.1-3.8-0.6-7.6-1.9-11.2l0,0
	c-0.7-2.1-1.5-4.2-2.6-6.2c-2.9-5.5-7-10-11.9-13.5l0,0c-3.2-2.3-6.8-4-10.6-5.1c-3-0.9-6-1.5-9-1.6c-0.1,0-0.2,0-0.4,0
	c-2.9-0.2-5.9,0-8.6,0.6l0,0c-1.6,0.3-3.3,0.7-4.9,1.2l0,0c-4.3,1.3-8.3,3.5-11.8,6.3l0,0c-0.7,0.5-1.4,1.1-2,1.6l0,0
	c-3.7,3.3-6.7,7.2-9,11.9c-0.3,0.6-0.3,1.5,0,2.1l0,0c0.4,0.7,1.1,1.1,1.8,1.2c1.6,0.3,3.3,0.6,4.9,1.1l0,0
	c8.5,2.6,15.5,8.4,19.7,16.3s5,16.9,2.4,25.5c-0.5,1.6-1.1,3.2-1.8,4.7c-0.3,0.6-0.3,1.5,0,2.1l0,0c0.3,0.5,0.8,0.9,1.4,1.2
	c0.1,0,0.3,0.1,0.4,0c4.2,0.6,8.3,0.6,12.3-0.2l0,0c0.8-0.1,1.6-0.3,2.4-0.5l0,0C53.8,91.3,58.6,89,62.9,85.6z M49.2,87.5
	c-0.8,0.3-1.5,0.4-2.3,0.6l-0.1,0c-0.8,0.2-1.5,0.3-2.4,0.5c-2.3,0.4-4.6,0.5-7,0.4c0.3-0.7,0.5-1.5,0.8-2.3
	c3-9.7,2.1-20.1-2.7-29.1l0,0C30.8,48.6,22.8,42,13,39l0,0c-0.8-0.3-1.6-0.4-2.4-0.7c1.2-2,2.7-3.9,4.3-5.6c0.5-0.6,1.1-1.1,1.7-1.7
	l0.1,0c0.5-0.5,1.1-1.1,1.8-1.5c3.3-2.6,7-4.6,11-5.8c0.8-0.3,1.5-0.4,2.2-0.6l0.1,0c0.8-0.2,1.5-0.3,2.4-0.5
	c1.3-0.3,2.7-0.4,4.1-0.4c1.6,0,3.2,0,4.7,0.2c2.1,0.3,4.2,0.6,6.2,1.2c2,0.6,3.9,1.4,5.8,2.4c1.4,0.7,2.8,1.6,4,2.5l0,0
	c1.1,0.8,2.1,1.7,3.2,2.6c0.5,0.5,1.1,1,1.5,1.6c0,0.1,0.2,0.1,0.2,0.2c0.5,0.5,1.1,1.1,1.5,1.7c1.3,1.7,2.4,3.3,3.4,5.2
	c1,1.9,1.8,3.8,2.4,5.8c0.2,0.7,0.4,1.5,0.6,2.2c0,0.1,0,0.2,0.1,0.3c0.2,0.7,0.3,1.4,0.5,2.1c0.3,1.3,0.3,2.7,0.4,4.1
	c0,1.6,0,3.2-0.2,4.7c-0.3,2.1-0.7,4.1-1.3,6.1c-0.6,2-1.5,4-2.5,5.8c-0.7,1.4-1.6,2.6-2.5,3.9c-0.9,1.1-1.7,2.3-2.7,3.2
	c-0.5,0.6-1.1,1.1-1.7,1.7l-0.1,0c-0.5,0.5-1.1,1.1-1.8,1.5C57,84.3,53.3,86.3,49.2,87.5z"/>
</svg>
