<?xml version="1.0" encoding="utf-8"?>
<!-- Generator: Adobe Illustrator 19.2.1, SVG Export Plug-In . SVG Version: 6.00 Build 0)  -->
<svg version="1.1" id="Layer_1" xmlns="http://www.w3.org/2000/svg" xmlns:xlink="http://www.w3.org/1999/xlink" x="0px" y="0px"
	 viewBox="0 0 58.6 36.9" style="enable-background:new 0 0 58.6 36.9;" xml:space="preserve">
<style type="text/css">
	.st0{fill:url(#SVGID_1_);}
	.st1{fill:url(#SVGID_2_);}
</style>
<g>
	
		<linearGradient id="SVGID_1_" gradientUnits="userSpaceOnUse" x1="15.8978" y1="32.7837" x2="54.1415" y2="0.7209" gradientTransform="matrix(0.8652 0.5015 -0.5015 0.8652 9.0754 -14.8384)">
		<stop  offset="0" style="stop-color:#FFFFFF"/>
		<stop  offset="0.1668" style="stop-color:#FBFBFB"/>
		<stop  offset="0.3201" style="stop-color:#F0F0F0"/>
		<stop  offset="0.4682" style="stop-color:#DEDEDE"/>
		<stop  offset="0.613" style="stop-color:#C3C3C3"/>
		<stop  offset="0.7555" style="stop-color:#A1A1A1"/>
		<stop  offset="0.8941" style="stop-color:#797979"/>
		<stop  offset="1" style="stop-color:#545454"/>
	</linearGradient>
	<path class="st0" d="M55.4,12.5c-1.5-6.5-3.9-11.5-5.3-11.3c-0.1,0-0.3,0.2-0.4,0.3l0,0l0,0c-0.2,0.3-0.4,1.1-0.5,1.9
		c-2.6,9.1-8.4,11.2-8.4,11.2l-16,4.3l-0.4-1.5l-0.5,0.1l-0.1-0.4l0.4-0.1L24,16.7L22.7,17l0.1,0.4l0.4-0.1l0.1,0.4l-0.5,0.1
		l0.4,1.5l-1.4,0.4l-0.4-1.5l-0.5,0.1l-0.1-0.4l0.4-0.1l-0.1-0.4l-1.2,0.3l0.1,0.4l0.4-0.1l0.1,0.4l-0.5,0.1l0.4,1.5l-1.6,0.3
		l-0.3-1.5l-0.5,0.1l-0.1-0.4l0.4-0.1l-0.1-0.4l-1.2,0.3l0.1,0.4l0.4-0.1l0.1,0.4l-0.5,0.2l0.4,1.5L7.4,23.6l0.2,0.8L1.4,26
		c0,0-1.1-0.4-1.4-0.2c-0.2,0.1,0.1,0.8,0.3,1.1c0,0.4,0.1,1.1,0.3,1.1c0.4,0,1.1-0.9,1.1-0.9l6.1-1.6l0.2,0.8l2-0.5
		c-0.6,0.9-0.8,2.1-0.5,3.2c0.6,2.2,2.9,3.4,5.1,2.8l5.3-1.4l0.4,1.4l1.5-0.3L21.5,30l1.6-0.3l0.4,1.4l1.5-0.3l-0.4-1.4l1.4-0.4
		l0.4,1.4l1.5-0.3l-0.4-1.4l15.1-4c2.2-0.6,3.5-2.8,3-5c-0.1-0.3-0.1-0.4-0.2-0.6c4.4,0.4,7.4,2.9,8.7,4.5c0.4,0.7,0.8,1.2,1.1,1.5
		l0,0l0,0c0.3,0.2,0.4,0.3,0.7,0.2C57.1,24.5,56.9,19,55.4,12.5z M16.7,30c-1.1,0.3-2.1-0.3-2.3-1.4c-0.3-1,0.4-2.1,1.4-2.3l3-0.8
		l1,3.7L16.7,30z M21.1,28.9l-1-3.7l1.6-0.3l1,3.7L21.1,28.9z M24.2,28.1l-1-3.7l1.4-0.4l1,3.7L24.2,28.1z M40.7,23.7l-13.8,3.6
		l-1-3.7l13.8-3.7c1.1-0.3,2.1,0.3,2.3,1.4C42.4,22.4,41.8,23.4,40.7,23.7z"/>
	
		<linearGradient id="SVGID_2_" gradientUnits="userSpaceOnUse" x1="58.3145" y1="-0.8936" x2="43.4812" y2="11.9397" gradientTransform="matrix(0.8652 0.5015 0.5015 -0.8652 5.636 -8.9049)">
		<stop  offset="0" style="stop-color:#FFFFFF"/>
		<stop  offset="0.1668" style="stop-color:#FBFBFB"/>
		<stop  offset="0.3201" style="stop-color:#F0F0F0"/>
		<stop  offset="0.4682" style="stop-color:#DEDEDE"/>
		<stop  offset="0.613" style="stop-color:#C3C3C3"/>
		<stop  offset="0.7555" style="stop-color:#A1A1A1"/>
		<stop  offset="0.8941" style="stop-color:#797979"/>
		<stop  offset="1" style="stop-color:#545454"/>
	</linearGradient>
	<path class="st1" d="M55.1,22.7c-1.1,0.3-3.1-3.9-4.3-9.2c-1.2-5.3-1.4-9.8-0.3-10.1c1.1-0.3,3.1,3.9,4.3,9.2
		C56.1,17.9,56.3,22.5,55.1,22.7z"/>
</g>
</svg>
