<svg id="Layer_1" data-name="Layer 1" xmlns="http://www.w3.org/2000/svg" viewBox="0 0 94.553 84.885">
  <defs>
    <style>
      .cls-1 {
        fill: #fff;
      }
    </style>
  </defs>
  <title>Zenteno Movie Icon</title>
  <path class="cls-1" d="M37.05,51.68A10.35,10.35,0,1,0,26.67,62h.03A10.37,10.37,0,0,0,37.05,51.68ZM26.7,54a2.35,2.35,0,1,1,2.35-2.35h0A2.36,2.36,0,0,1,26.7,54Z" transform="translate(-2.747 -7.56)"/>
  <path class="cls-1" d="M49.86,51.68A10.35,10.35,0,1,0,60.21,41.33h0A10.37,10.37,0,0,0,49.86,51.68Zm12.71,0a2.35,2.35,0,1,1-2.35-2.35h0a2.36,2.36,0,0,1,2.34,2.35Z" transform="translate(-2.747 -7.56)"/>
  <path class="cls-1" d="M43.45,45.28A10.35,10.35,0,1,0,33.1,34.93,10.35,10.35,0,0,0,43.45,45.28Zm0-12.71a2.35,2.35,0,1,1-2.35,2.35h0A2.36,2.36,0,0,1,43.45,32.57Z" transform="translate(-2.747 -7.56)"/>
  <path class="cls-1" d="M43.45,58.08A10.35,10.35,0,1,0,53.81,68.44,10.35,10.35,0,0,0,43.45,58.08Zm0,12.71a2.35,2.35,0,1,1,2.35-2.35h0A2.36,2.36,0,0,1,43.45,70.79Z" transform="translate(-2.747 -7.56)"/>
  <path class="cls-1" d="M93.3,7.56a17.11,17.11,0,0,0-17.09,17.1v2.81a40.73,40.73,0,1,0,8,24.22v-27A9.1,9.1,0,0,1,93.3,15.6a4,4,0,1,0,0-8ZM43.45,84.44A32.76,32.76,0,1,1,76.21,51.68,32.76,32.76,0,0,1,43.45,84.44Z" transform="translate(-2.747 -7.56)"/>
</svg>
